G75*
%MOIN*%
%OFA0B0*%
%FSLAX25Y25*%
%IPPOS*%
%LPD*%
%AMOC8*
5,1,8,0,0,1.08239X$1,22.5*
%
%ADD10OC8,0.06300*%
%ADD11C,0.06300*%
%ADD12OC8,0.05200*%
%ADD13C,0.06000*%
%ADD14OC8,0.10000*%
%ADD15C,0.05200*%
%ADD16R,0.05000X0.02500*%
%ADD17C,0.07874*%
%ADD18C,0.01000*%
D10*
X0150000Y0066000D03*
X0170000Y0066000D03*
X0185000Y0066000D03*
X0205000Y0066000D03*
X0165000Y0191000D03*
X0145000Y0191000D03*
X0125000Y0216000D03*
X0115000Y0256000D03*
X0135000Y0256000D03*
X0205000Y0256000D03*
X0225000Y0256000D03*
X0215000Y0216000D03*
D11*
X0215000Y0226000D03*
X0125000Y0226000D03*
D12*
X0165000Y0236000D03*
X0170000Y0228500D03*
X0175000Y0236000D03*
X0075000Y0206000D03*
X0075000Y0191000D03*
X0075000Y0176000D03*
X0045000Y0176000D03*
X0045000Y0191000D03*
X0045000Y0206000D03*
X0025000Y0206000D03*
X0015000Y0206000D03*
X0085000Y0091000D03*
X0085000Y0081000D03*
X0075000Y0081000D03*
X0055000Y0086000D03*
X0025000Y0086000D03*
D13*
X0035000Y0034000D02*
X0035000Y0028000D01*
X0045000Y0028000D02*
X0045000Y0034000D01*
X0055000Y0034000D02*
X0055000Y0028000D01*
X0090000Y0028000D02*
X0090000Y0034000D01*
X0100000Y0034000D02*
X0100000Y0028000D01*
X0110000Y0028000D02*
X0110000Y0034000D01*
X0120000Y0034000D02*
X0120000Y0028000D01*
X0155000Y0028000D02*
X0155000Y0034000D01*
X0165000Y0034000D02*
X0165000Y0028000D01*
X0175000Y0028000D02*
X0175000Y0034000D01*
X0185000Y0034000D02*
X0185000Y0028000D01*
X0195000Y0028000D02*
X0195000Y0034000D01*
X0240000Y0034000D02*
X0240000Y0028000D01*
X0250000Y0028000D02*
X0250000Y0034000D01*
X0260000Y0034000D02*
X0260000Y0028000D01*
X0270000Y0028000D02*
X0270000Y0034000D01*
D14*
X0294500Y0156000D03*
X0235500Y0156000D03*
D15*
X0190000Y0148600D02*
X0190000Y0143400D01*
X0180000Y0143400D02*
X0180000Y0148600D01*
X0170000Y0148600D02*
X0170000Y0143400D01*
X0160000Y0143400D02*
X0160000Y0148600D01*
X0150000Y0148600D02*
X0150000Y0143400D01*
X0140000Y0143400D02*
X0140000Y0148600D01*
X0130000Y0148600D02*
X0130000Y0143400D01*
X0120000Y0143400D02*
X0120000Y0148600D01*
X0110000Y0148600D02*
X0110000Y0143400D01*
X0100000Y0143400D02*
X0100000Y0148600D01*
X0100000Y0118600D02*
X0100000Y0113400D01*
X0110000Y0113400D02*
X0110000Y0118600D01*
X0120000Y0118600D02*
X0120000Y0113400D01*
X0130000Y0113400D02*
X0130000Y0118600D01*
X0140000Y0118600D02*
X0140000Y0113400D01*
X0150000Y0113400D02*
X0150000Y0118600D01*
X0160000Y0118600D02*
X0160000Y0113400D01*
X0170000Y0113400D02*
X0170000Y0118600D01*
X0180000Y0118600D02*
X0180000Y0113400D01*
X0190000Y0113400D02*
X0190000Y0118600D01*
D16*
X0190000Y0142250D03*
X0190000Y0149750D03*
D17*
X0059331Y0251906D02*
X0059331Y0259780D01*
X0034528Y0259780D02*
X0034528Y0251906D01*
X0043583Y0236157D02*
X0051457Y0236157D01*
D18*
X0060000Y0251000D02*
X0059331Y0255843D01*
X0060000Y0251000D02*
X0130000Y0251000D01*
X0135000Y0256000D01*
X0165000Y0236000D02*
X0170000Y0241000D01*
X0190000Y0241000D01*
X0205000Y0256000D01*
X0205000Y0226000D02*
X0170000Y0226000D01*
X0170000Y0228500D01*
X0165000Y0236000D02*
X0155000Y0226000D01*
X0125000Y0226000D01*
X0035000Y0226000D01*
X0035000Y0251000D01*
X0034528Y0255843D01*
X0040000Y0211000D02*
X0020000Y0211000D01*
X0015000Y0206000D01*
X0025000Y0206000D02*
X0030000Y0201000D01*
X0110000Y0201000D01*
X0125000Y0216000D01*
X0140000Y0196000D02*
X0145000Y0191000D01*
X0140000Y0196000D02*
X0050000Y0196000D01*
X0045000Y0191000D01*
X0045000Y0176000D02*
X0060000Y0161000D01*
X0165000Y0161000D01*
X0180000Y0146000D01*
X0140000Y0146000D02*
X0130000Y0156000D01*
X0120000Y0156000D01*
X0115000Y0151000D01*
X0115000Y0071000D01*
X0210000Y0071000D01*
X0250000Y0031000D01*
X0205000Y0066000D02*
X0180000Y0041000D01*
X0175000Y0041000D01*
X0155000Y0041000D01*
X0155000Y0031000D01*
X0155000Y0041000D02*
X0155000Y0051000D01*
X0075000Y0051000D01*
X0075000Y0081000D01*
X0085000Y0091000D02*
X0030000Y0091000D01*
X0025000Y0086000D01*
X0075000Y0051000D02*
X0075000Y0041000D01*
X0045000Y0041000D01*
X0035000Y0031000D01*
X0055000Y0031000D02*
X0065000Y0021000D01*
X0110000Y0021000D01*
X0120000Y0031000D01*
X0090000Y0031000D02*
X0075000Y0031000D01*
X0075000Y0041000D01*
X0155000Y0051000D02*
X0155000Y0066000D01*
X0170000Y0066000D01*
X0175000Y0041000D02*
X0185000Y0031000D01*
X0130000Y0136000D02*
X0270000Y0136000D01*
X0290000Y0156000D01*
X0294500Y0156000D01*
X0215000Y0216000D02*
X0205000Y0226000D01*
X0120000Y0146000D02*
X0130000Y0136000D01*
X0045000Y0206000D02*
X0040000Y0211000D01*
M02*
