G75*
%MOIN*%
%OFA0B0*%
%FSLAX26Y26*%
%IPPOS*%
%LPD*%
%AMOC8*
5,1,8,0,0,1.08239X$1,22.5*
%
%ADD10C,0.006000*%
%ADD11OC8,0.063000*%
%ADD12C,0.063000*%
%ADD13OC8,0.052000*%
%ADD14C,0.060000*%
%ADD15C,0.010400*%
%ADD16OC8,0.100000*%
%ADD17C,0.052000*%
%ADD18R,0.050000X0.025000*%
%ADD19C,0.078740*%
%ADD20C,0.016000*%
%ADD21C,0.056000*%
%ADD22C,0.032000*%
%ADD23C,0.039622*%
%ADD24C,0.012000*%
D10*
X01803000Y01228000D02*
X01845703Y01228000D01*
X01803000Y01228000D02*
X01803000Y01292055D01*
X01867455Y01292055D02*
X01867455Y01281379D01*
X01888806Y01260027D01*
X01888806Y01228000D01*
X01888806Y01260027D02*
X01910158Y01281379D01*
X01910158Y01292055D01*
X02089842Y01281379D02*
X02100518Y01292055D01*
X02121869Y01292055D01*
X02132545Y01281379D01*
X02132545Y01270703D01*
X02121869Y01260027D01*
X02100518Y01260027D01*
X02089842Y01249352D01*
X02089842Y01238676D01*
X02100518Y01228000D01*
X02121869Y01228000D01*
X02132545Y01238676D01*
X02125275Y01228000D02*
X02167978Y01270703D01*
X02167978Y01281379D01*
X02157302Y01292055D01*
X02135951Y01292055D01*
X02125275Y01281379D01*
X02154297Y01281379D02*
X02164973Y01292055D01*
X02186324Y01292055D01*
X02197000Y01281379D01*
X02197000Y01270703D01*
X02186324Y01260027D01*
X02164973Y01260027D01*
X02154297Y01249352D01*
X02154297Y01238676D01*
X02164973Y01228000D01*
X02186324Y01228000D01*
X02197000Y01238676D01*
X02167978Y01228000D02*
X02125275Y01228000D01*
D11*
X02040000Y00990000D03*
X02040000Y00890000D03*
X01708819Y00910000D03*
X01708819Y01010000D03*
X01568819Y00998819D03*
X01568819Y00898819D03*
X01280000Y01250000D03*
X01280000Y01350000D03*
X01140000Y01030000D03*
X01140000Y00930000D03*
X00667008Y01010000D03*
X00667008Y01110000D03*
X01249370Y01930000D03*
X01255276Y02067638D03*
X00886457Y02004094D03*
X00786457Y02004094D03*
X00786500Y02184000D03*
X00886500Y02184000D03*
D12*
X01255276Y02167638D03*
X01249370Y01830000D03*
D13*
X01067638Y01974094D03*
X00992638Y02024094D03*
X01067638Y02074094D03*
X01422835Y02211890D03*
X01535000Y02170000D03*
X01635000Y02170000D03*
X01422835Y01911890D03*
X01005197Y01210472D03*
X00896535Y01199291D03*
X00791654Y01208898D03*
X00466457Y01160000D03*
X00361654Y01228189D03*
X00361654Y00928189D03*
X00466457Y00860000D03*
X00791654Y00908898D03*
X00896535Y00899291D03*
X01005197Y00910472D03*
X01260000Y00850000D03*
X01357717Y00846378D03*
X01460079Y00847559D03*
X01460079Y01147559D03*
X01357717Y01146378D03*
X01260000Y01150000D03*
X02185000Y01145000D03*
X02185000Y00845000D03*
D14*
X02170000Y00710000D02*
X02170000Y00650000D01*
X02070000Y00650000D02*
X02070000Y00710000D01*
X01970000Y00710000D02*
X01970000Y00650000D01*
X01870000Y00650000D02*
X01870000Y00710000D01*
X01620000Y00710000D02*
X01620000Y00650000D01*
X01520000Y00650000D02*
X01520000Y00710000D01*
X01420000Y00710000D02*
X01420000Y00650000D01*
X01320000Y00650000D02*
X01320000Y00710000D01*
X01220000Y00710000D02*
X01220000Y00650000D01*
X00970000Y00650000D02*
X00970000Y00710000D01*
X00870000Y00710000D02*
X00870000Y00650000D01*
X00770000Y00650000D02*
X00770000Y00710000D01*
X00670000Y00710000D02*
X00670000Y00650000D01*
X00420000Y00650000D02*
X00420000Y00710000D01*
X00320000Y00710000D02*
X00320000Y00650000D01*
X00220000Y00650000D02*
X00220000Y00710000D01*
X01750000Y02145000D02*
X01750000Y02205000D01*
X01850000Y02205000D02*
X01850000Y02145000D01*
X01950000Y02145000D02*
X01950000Y02205000D01*
X02050000Y02205000D02*
X02050000Y02145000D01*
D15*
X00282787Y01008348D02*
X00287987Y01013548D01*
X00288829Y00996338D01*
X00277255Y00983574D01*
X00260045Y00982732D01*
X00247281Y00994306D01*
X00246439Y01011516D01*
X00258013Y01024280D01*
X00275223Y01025122D01*
X00287987Y01013548D01*
X00280354Y01009940D01*
X00280881Y00999184D01*
X00273647Y00991207D01*
X00262891Y00990680D01*
X00254914Y00997914D01*
X00254387Y01008670D01*
X00261621Y01016647D01*
X00272377Y01017174D01*
X00280354Y01009940D01*
X00272721Y01006332D01*
X00272932Y01002030D01*
X00270039Y00998840D01*
X00265737Y00998629D01*
X00262547Y01001522D01*
X00262336Y01005824D01*
X00265229Y01009014D01*
X00269531Y01009225D01*
X00272721Y01006332D01*
X00208707Y01075520D02*
X00213907Y01080720D01*
X00214749Y01063510D01*
X00203175Y01050746D01*
X00185965Y01049904D01*
X00173201Y01061478D01*
X00172359Y01078688D01*
X00183933Y01091452D01*
X00201143Y01092294D01*
X00213907Y01080720D01*
X00206274Y01077112D01*
X00206801Y01066356D01*
X00199567Y01058379D01*
X00188811Y01057852D01*
X00180834Y01065086D01*
X00180307Y01075842D01*
X00187541Y01083819D01*
X00198297Y01084346D01*
X00206274Y01077112D01*
X00198641Y01073504D01*
X00198852Y01069202D01*
X00195959Y01066012D01*
X00191657Y01065801D01*
X00188467Y01068694D01*
X00188256Y01072996D01*
X00191149Y01076186D01*
X00195451Y01076397D01*
X00198641Y01073504D01*
X00215615Y00934267D02*
X00220815Y00939467D01*
X00221657Y00922257D01*
X00210083Y00909493D01*
X00192873Y00908651D01*
X00180109Y00920225D01*
X00179267Y00937435D01*
X00190841Y00950199D01*
X00208051Y00951041D01*
X00220815Y00939467D01*
X00213182Y00935859D01*
X00213709Y00925103D01*
X00206475Y00917126D01*
X00195719Y00916599D01*
X00187742Y00923833D01*
X00187215Y00934589D01*
X00194449Y00942566D01*
X00205205Y00943093D01*
X00213182Y00935859D01*
X00205549Y00932251D01*
X00205760Y00927949D01*
X00202867Y00924759D01*
X00198565Y00924548D01*
X00195375Y00927441D01*
X00195164Y00931743D01*
X00198057Y00934933D01*
X00202359Y00935144D01*
X00205549Y00932251D01*
D16*
X01536181Y01553819D03*
X02126181Y01553819D03*
D17*
X01150000Y01654000D02*
X01150000Y01706000D01*
X01050000Y01706000D02*
X01050000Y01654000D01*
X00950000Y01654000D02*
X00950000Y01706000D01*
X00850000Y01706000D02*
X00850000Y01654000D01*
X00750000Y01654000D02*
X00750000Y01706000D01*
X00650000Y01706000D02*
X00650000Y01654000D01*
X00550000Y01654000D02*
X00550000Y01706000D01*
X00450000Y01706000D02*
X00450000Y01654000D01*
X00350000Y01654000D02*
X00350000Y01706000D01*
X00250000Y01706000D02*
X00250000Y01654000D01*
X00250000Y01406000D02*
X00250000Y01354000D01*
X00350000Y01354000D02*
X00350000Y01406000D01*
X00450000Y01406000D02*
X00450000Y01354000D01*
X00550000Y01354000D02*
X00550000Y01406000D01*
X00650000Y01406000D02*
X00650000Y01354000D01*
X00750000Y01354000D02*
X00750000Y01406000D01*
X00850000Y01406000D02*
X00850000Y01354000D01*
X00950000Y01354000D02*
X00950000Y01406000D01*
X01050000Y01406000D02*
X01050000Y01354000D01*
X01150000Y01354000D02*
X01150000Y01406000D01*
D18*
X01150000Y01642500D03*
X01150000Y01717500D03*
D19*
X00543307Y02109055D02*
X00543307Y02187795D01*
X00295276Y02187795D02*
X00295276Y02109055D01*
X00385827Y01951575D02*
X00464567Y01951575D01*
D20*
X00170000Y00550000D02*
X02170000Y00550000D01*
X02150000Y00530000D02*
X02150000Y00573858D01*
X02154485Y00572000D02*
X02185515Y00572000D01*
X02196586Y00576586D01*
X02120000Y00500000D01*
X00220000Y00500000D01*
X00100000Y00620000D01*
X00100000Y02140000D01*
X00200000Y02240000D01*
X00200000Y01760652D01*
X00208082Y01768734D02*
X00187266Y01747918D01*
X00176000Y01720719D01*
X00176000Y01639280D01*
X00187266Y01612082D01*
X00208082Y01591266D01*
X00235280Y01580000D01*
X00264719Y01580000D01*
X00291918Y01591266D01*
X00300000Y01599348D01*
X00300000Y01460652D01*
X00291918Y01468734D01*
X00264719Y01480000D01*
X00235280Y01480000D01*
X00208082Y01468734D01*
X00187266Y01447918D01*
X00176000Y01420719D01*
X00176000Y01339280D01*
X00187266Y01312082D01*
X00208082Y01291266D01*
X00235280Y01280000D01*
X00264719Y01280000D01*
X00291918Y01291266D01*
X00300000Y01299348D01*
X00300000Y01271187D01*
X00287654Y01258841D02*
X00287654Y01197537D01*
X00331002Y01154189D01*
X00392305Y01154189D01*
X00392457Y01154341D01*
X00392457Y01129348D01*
X00435805Y01086000D01*
X00497108Y01086000D01*
X00540457Y01129348D01*
X00540457Y01190652D01*
X00497108Y01234000D01*
X00435805Y01234000D01*
X00435653Y01233848D01*
X00435653Y01258841D01*
X00397573Y01296921D01*
X00400000Y01299348D01*
X00400000Y01294494D01*
X00400000Y01299348D02*
X00408082Y01291266D01*
X00435280Y01280000D01*
X00464719Y01280000D01*
X00491918Y01291266D01*
X00500000Y01299348D01*
X00500000Y01231108D01*
X00531108Y01200000D02*
X00717654Y01200000D01*
X00717654Y01178246D02*
X00761002Y01134898D01*
X00822305Y01134898D01*
X00839291Y01151884D01*
X00865884Y01125291D01*
X00927187Y01125291D01*
X00956457Y01154561D01*
X00974545Y01136472D01*
X01035849Y01136472D01*
X01079197Y01179821D01*
X01079197Y01241124D01*
X01040321Y01280000D01*
X01064719Y01280000D01*
X01091918Y01291266D01*
X01112734Y01312082D01*
X01117701Y01324074D01*
X01121336Y01320439D01*
X01126939Y01316368D01*
X01133110Y01313224D01*
X01139697Y01311083D01*
X01146537Y01310000D01*
X01149999Y01310000D01*
X01149999Y01379999D01*
X01150000Y01379999D01*
X01150000Y01109500D01*
X01172930Y01109500D02*
X01107070Y01109500D01*
X01060500Y01062930D01*
X01060500Y00997070D01*
X01098783Y00958787D01*
X01090500Y00950503D01*
X01090500Y00930000D01*
X01139999Y00930000D01*
X01139999Y00929999D01*
X01090500Y00929999D01*
X01090500Y00909496D01*
X01119496Y00880500D01*
X01139999Y00880500D01*
X01139999Y00929999D01*
X01140000Y00929999D01*
X01140000Y00880500D01*
X01160503Y00880500D01*
X01189500Y00909496D01*
X01189500Y00929999D01*
X01140001Y00929999D01*
X01140001Y00930000D01*
X01189500Y00930000D01*
X01189500Y00950503D01*
X01181217Y00958787D01*
X01219500Y00997070D01*
X01219500Y01062930D01*
X01172930Y01109500D01*
X01182430Y01100000D02*
X01205348Y01100000D01*
X01200000Y01105348D02*
X01200000Y01082430D01*
X01229348Y01076000D02*
X01186000Y01119348D01*
X01186000Y01180652D01*
X01229348Y01224000D01*
X01235997Y01224000D01*
X01230500Y01229496D01*
X01230500Y01249999D01*
X01279999Y01249999D01*
X01279999Y01250000D01*
X01070321Y01250000D01*
X01050000Y01270321D02*
X01050000Y01280000D01*
X01100000Y01299348D02*
X01100000Y01102430D01*
X01097570Y01100000D02*
X00716508Y01100000D01*
X00716508Y01109999D02*
X00667009Y01109999D01*
X00667009Y01110000D01*
X00716508Y01110000D01*
X00716508Y01130503D01*
X00687511Y01159500D01*
X00667008Y01159500D01*
X00667008Y01110001D01*
X00667007Y01110001D01*
X00667007Y01159500D01*
X00646504Y01159500D01*
X00617508Y01130503D01*
X00617508Y01110000D01*
X00667007Y01110000D01*
X00667007Y01109999D01*
X00617508Y01109999D01*
X00617508Y01089496D01*
X00625791Y01081213D01*
X00587508Y01042930D01*
X00587508Y00977070D01*
X00634078Y00930500D01*
X00699938Y00930500D01*
X00746508Y00977070D01*
X00746508Y01042930D01*
X00708224Y01081213D01*
X00716508Y01089496D01*
X00716508Y01109999D01*
X00700000Y01109999D02*
X00700000Y01110000D01*
X00700000Y01147011D02*
X00700000Y01299348D01*
X00708082Y01291266D01*
X00735280Y01280000D01*
X00758104Y01280000D01*
X00717654Y01239549D01*
X00717654Y01178246D01*
X00697011Y01150000D02*
X00745899Y01150000D01*
X00750000Y01145899D02*
X00750000Y00971896D01*
X00761002Y00982898D02*
X00717654Y00939549D01*
X00717654Y00878246D01*
X00761002Y00834898D01*
X00822305Y00834898D01*
X00860504Y00873097D01*
X00878310Y00855291D01*
X00896535Y00855291D01*
X00896535Y00899290D01*
X00896536Y00899290D01*
X00896536Y00855291D01*
X00914761Y00855291D01*
X00935243Y00875774D01*
X00974545Y00836472D01*
X01035849Y00836472D01*
X01079197Y00879821D01*
X01079197Y00941124D01*
X01035849Y00984472D01*
X00974545Y00984472D01*
X00931197Y00941124D01*
X00931197Y00926855D01*
X00914761Y00943291D01*
X00896536Y00943291D01*
X00896536Y00899293D01*
X00896535Y00899293D01*
X00896535Y00943291D01*
X00878310Y00943291D01*
X00865653Y00930634D01*
X00865653Y00939549D01*
X00822305Y00982898D01*
X00761002Y00982898D01*
X00746508Y01000000D02*
X01060500Y01000000D01*
X01050000Y00970321D02*
X01050000Y01150624D01*
X01049376Y01150000D02*
X01186000Y01150000D01*
X01200000Y01194652D02*
X01200000Y01599348D01*
X01200652Y01600000D02*
X01211000Y01600000D01*
X01211000Y01610348D02*
X01211000Y01393430D01*
X01200500Y01382930D01*
X01200500Y01317070D01*
X01238783Y01278787D01*
X01230500Y01270503D01*
X01230500Y01250000D01*
X01279999Y01250000D01*
X01280001Y01250000D02*
X01752000Y01250000D01*
X01752000Y01217855D02*
X01759764Y01199111D01*
X01774111Y01184764D01*
X01792855Y01177000D01*
X01855848Y01177000D01*
X01867255Y01181725D01*
X01878662Y01177000D01*
X01898951Y01177000D01*
X01917696Y01184764D01*
X01932042Y01199111D01*
X01939806Y01217855D01*
X01939806Y01238902D01*
X01953394Y01252490D01*
X01961158Y01271234D01*
X01961158Y01302199D01*
X01953394Y01320944D01*
X01939047Y01335290D01*
X01920303Y01343055D01*
X01900013Y01343055D01*
X01888806Y01338412D01*
X01877600Y01343055D01*
X01857310Y01343055D01*
X01838566Y01335290D01*
X01835227Y01331952D01*
X01831889Y01335290D01*
X01813145Y01343055D01*
X01792855Y01343055D01*
X01774111Y01335290D01*
X01762493Y01323672D01*
X01767811Y01336511D01*
X01767811Y01346912D01*
X01782487Y01361588D01*
X01792811Y01386511D01*
X01792811Y01413488D01*
X01782487Y01438412D01*
X01763412Y01457487D01*
X01738488Y01467811D01*
X01711511Y01467811D01*
X01686588Y01457487D01*
X01683101Y01454000D01*
X01414259Y01454000D01*
X01394411Y01445779D01*
X01366443Y01417811D01*
X01361511Y01417811D01*
X01339000Y01408486D01*
X01339000Y01636520D01*
X01339430Y01636949D01*
X01351000Y01664883D01*
X01351000Y01695117D01*
X01339430Y01723050D01*
X01318050Y01744430D01*
X01290117Y01756000D01*
X01278461Y01756000D01*
X01294403Y01762603D01*
X01316767Y01784967D01*
X01328870Y01814186D01*
X01328870Y01845813D01*
X01316767Y01875033D01*
X01294403Y01897397D01*
X01289006Y01899632D01*
X01298870Y01909496D01*
X01298870Y01929999D01*
X01249371Y01929999D01*
X01249371Y01930000D01*
X01298870Y01930000D01*
X01298870Y01950503D01*
X01269874Y01979500D01*
X01249371Y01979500D01*
X01249371Y01930001D01*
X01249369Y01930001D01*
X01249369Y01979500D01*
X01228867Y01979500D01*
X01199870Y01950503D01*
X01199870Y01930000D01*
X01249369Y01930000D01*
X01249369Y01929999D01*
X01199870Y01929999D01*
X01199870Y01909496D01*
X01209734Y01899632D01*
X01204337Y01897397D01*
X01181973Y01875033D01*
X01169870Y01845813D01*
X01169870Y01814186D01*
X01181973Y01784967D01*
X01204337Y01762603D01*
X01233556Y01750500D01*
X01246605Y01750500D01*
X01231949Y01744430D01*
X01219384Y01731864D01*
X01212734Y01747918D01*
X01191918Y01768734D01*
X01164719Y01780000D01*
X01135280Y01780000D01*
X01108082Y01768734D01*
X01100000Y01760652D01*
X01100000Y01901805D01*
X01098289Y01900094D02*
X01141638Y01943443D01*
X01141638Y02004746D01*
X01122289Y02024094D01*
X01141638Y02043443D01*
X01141638Y02104746D01*
X01098289Y02148094D01*
X01036986Y02148094D01*
X00993638Y02104746D01*
X00993638Y02068094D01*
X00992638Y02068094D01*
X00992638Y02024096D01*
X00992637Y02024096D01*
X00992637Y02068094D01*
X00974412Y02068094D01*
X00954649Y02048331D01*
X00919387Y02083594D01*
X00853527Y02083594D01*
X00815243Y02045311D01*
X00806960Y02053594D01*
X00786457Y02053594D01*
X00786457Y02004096D01*
X00786456Y02004096D01*
X00786456Y02053594D01*
X00765953Y02053594D01*
X00736957Y02024598D01*
X00736957Y02004095D01*
X00786455Y02004095D01*
X00786455Y02004094D01*
X00736957Y02004094D01*
X00736957Y01983591D01*
X00765953Y01954594D01*
X00786456Y01954594D01*
X00786456Y02004093D01*
X00786457Y02004093D01*
X00786457Y01954594D01*
X00806960Y01954594D01*
X00815243Y01962878D01*
X00853527Y01924594D01*
X00919387Y01924594D01*
X00965957Y01971164D01*
X00965957Y01988550D01*
X00974412Y01980094D01*
X00992637Y01980094D01*
X00992637Y02024093D01*
X00992638Y02024093D01*
X00992638Y01980094D01*
X00993638Y01980094D01*
X00993638Y01943443D01*
X01036986Y01900094D01*
X01098289Y01900094D01*
X01050000Y01900094D02*
X01050000Y01780000D01*
X01064719Y01780000D02*
X01035280Y01780000D01*
X01008082Y01768734D01*
X01000000Y01760652D01*
X01000000Y01937080D01*
X00993638Y01950000D02*
X00944792Y01950000D01*
X00950000Y01955208D02*
X00950000Y01780000D01*
X00964719Y01780000D02*
X00935280Y01780000D01*
X00908082Y01768734D01*
X00900000Y01760652D01*
X00900000Y01924594D01*
X00850000Y01928121D02*
X00850000Y01780000D01*
X00864719Y01780000D02*
X00835280Y01780000D01*
X00808082Y01768734D01*
X00800000Y01760652D01*
X00800000Y01954594D01*
X00828121Y01950000D02*
X00551937Y01950000D01*
X00551937Y01934196D02*
X00551937Y01968954D01*
X00538636Y02001066D01*
X00514058Y02025643D01*
X00481946Y02038945D01*
X00368448Y02038945D01*
X00336336Y02025643D01*
X00311758Y02001066D01*
X00298457Y01968954D01*
X00298457Y01934196D01*
X00311758Y01902084D01*
X00336336Y01877506D01*
X00368448Y01864205D01*
X00481946Y01864205D01*
X00514058Y01877506D01*
X00538636Y01902084D01*
X00551937Y01934196D01*
X00550000Y01929520D02*
X00550000Y01780000D01*
X00564719Y01780000D02*
X00535280Y01780000D01*
X00508082Y01768734D01*
X00500000Y01760652D01*
X00500000Y01871683D01*
X00536552Y01900000D02*
X01209367Y01900000D01*
X01200000Y01893060D02*
X01200000Y01909367D01*
X01200000Y01929999D02*
X01200000Y01930000D01*
X01199870Y01950000D02*
X01141638Y01950000D01*
X01200000Y01950633D02*
X01200000Y02110483D01*
X01210242Y02100241D02*
X01187879Y02122605D01*
X01175776Y02151824D01*
X01175776Y02183451D01*
X01187879Y02212671D01*
X01210242Y02235035D01*
X01222230Y02240000D01*
X00942930Y02240000D01*
X00966000Y02216930D01*
X00966000Y02151070D01*
X00919430Y02104500D01*
X00853570Y02104500D01*
X00815287Y02142783D01*
X00807003Y02134500D01*
X00786500Y02134500D01*
X00786500Y02183999D01*
X00786499Y02183999D01*
X00786499Y02134500D01*
X00765996Y02134500D01*
X00737000Y02163496D01*
X00737000Y02183999D01*
X00786499Y02183999D01*
X00786499Y02184000D01*
X00737000Y02184000D01*
X00737000Y02204503D01*
X00765996Y02233500D01*
X00786499Y02233500D01*
X00786499Y02184001D01*
X00786500Y02184001D01*
X00786500Y02233500D01*
X00807003Y02233500D01*
X00815287Y02225217D01*
X00830070Y02240000D01*
X00567218Y02240000D01*
X00573375Y02236862D01*
X00580681Y02231555D01*
X00587066Y02225169D01*
X00592374Y02217864D01*
X00596474Y02209818D01*
X00599264Y02201229D01*
X00600677Y02192310D01*
X00600677Y02150268D01*
X00545150Y02150268D01*
X00545150Y02146582D01*
X00545150Y02051685D01*
X00547822Y02051685D01*
X00556741Y02053098D01*
X00565329Y02055888D01*
X00573375Y02059988D01*
X00580681Y02065296D01*
X00587066Y02071681D01*
X00592374Y02078987D01*
X00596474Y02087033D01*
X00599264Y02095621D01*
X00600677Y02104540D01*
X00600677Y02146582D01*
X00545150Y02146582D01*
X00541464Y02146582D01*
X00541464Y02051685D01*
X00538792Y02051685D01*
X00529873Y02053098D01*
X00521285Y02055888D01*
X00513239Y02059988D01*
X00505933Y02065296D01*
X00499548Y02071681D01*
X00494240Y02078987D01*
X00490140Y02087033D01*
X00487350Y02095621D01*
X00485937Y02104540D01*
X00485937Y02146582D01*
X00541464Y02146582D01*
X00541464Y02150268D01*
X00485937Y02150268D01*
X00485937Y02192310D01*
X00487350Y02201229D01*
X00490140Y02209818D01*
X00494240Y02217864D01*
X00499548Y02225169D01*
X00505933Y02231555D01*
X00513239Y02236862D01*
X00519396Y02240000D01*
X00366631Y02240000D01*
X00369344Y02237286D01*
X00382646Y02205174D01*
X00382646Y02091676D01*
X00369344Y02059564D01*
X00344767Y02034986D01*
X00312655Y02021685D01*
X00277897Y02021685D01*
X00245784Y02034986D01*
X00221207Y02059564D01*
X00207906Y02091676D01*
X00207906Y02205174D01*
X00221207Y02237286D01*
X00223920Y02240000D01*
X00200000Y02240000D01*
X00207906Y02200000D02*
X00160000Y02200000D01*
X00150000Y02190000D02*
X00150000Y01133230D01*
X00159323Y01143513D02*
X00118145Y01098099D01*
X00121139Y01036868D01*
X00166553Y00995690D01*
X00193883Y00997026D01*
X00195027Y00973633D01*
X00180109Y00972903D01*
X00167867Y00959402D01*
X00200461Y00929847D01*
X00200461Y00929846D01*
X00200461Y00929845D02*
X00200461Y00929845D01*
X00170907Y00897250D01*
X00184408Y00885008D01*
X00220815Y00886789D01*
X00233057Y00900290D01*
X00200462Y00929845D01*
X00200463Y00929845D01*
X00233058Y00900291D01*
X00245300Y00913792D01*
X00244570Y00928710D01*
X00287654Y00930817D01*
X00287654Y00897537D01*
X00331002Y00854189D01*
X00392305Y00854189D01*
X00392457Y00854341D01*
X00392457Y00829348D01*
X00433805Y00788000D01*
X00404485Y00788000D01*
X00375816Y00776125D01*
X00370000Y00770309D01*
X00364183Y00776125D01*
X00335515Y00788000D01*
X00304485Y00788000D01*
X00275816Y00776125D01*
X00253875Y00754183D01*
X00250862Y00746909D01*
X00245157Y00751053D01*
X00238426Y00754483D01*
X00231240Y00756818D01*
X00223778Y00758000D01*
X00222000Y00758000D01*
X00222000Y00682001D01*
X00218000Y00682001D01*
X00218000Y00758000D01*
X00216222Y00758000D01*
X00208760Y00756818D01*
X00201574Y00754483D01*
X00194843Y00751053D01*
X00188730Y00746612D01*
X00183388Y00741270D01*
X00178947Y00735157D01*
X00175517Y00728426D01*
X00173182Y00721240D01*
X00172000Y00713778D01*
X00172000Y00682000D01*
X00217999Y00682000D01*
X00217999Y00678000D01*
X00172000Y00678000D01*
X00172000Y00646222D01*
X00173182Y00638760D01*
X00175517Y00631574D01*
X00178947Y00624843D01*
X00183388Y00618730D01*
X00188730Y00613388D01*
X00194843Y00608947D01*
X00201574Y00605517D01*
X00208760Y00603182D01*
X00216222Y00602000D01*
X00218000Y00602000D01*
X00218000Y00677999D01*
X00222000Y00677999D01*
X00222000Y00602000D01*
X00223778Y00602000D01*
X00231240Y00603182D01*
X00238426Y00605517D01*
X00245157Y00608947D01*
X00250862Y00613091D01*
X00253875Y00605816D01*
X00275816Y00583875D01*
X00304485Y00572000D01*
X00335515Y00572000D01*
X00364183Y00583875D01*
X00370000Y00589691D01*
X00375816Y00583875D01*
X00404485Y00572000D01*
X00435515Y00572000D01*
X00464183Y00583875D01*
X00486125Y00605816D01*
X00498000Y00634485D01*
X00498000Y00725515D01*
X00486125Y00754183D01*
X00464183Y00776125D01*
X00440343Y00786000D01*
X00497108Y00786000D01*
X00540457Y00829348D01*
X00540457Y00890652D01*
X00497108Y00934000D01*
X00435805Y00934000D01*
X00435653Y00933848D01*
X00435653Y00958841D01*
X00392305Y01002189D01*
X00341807Y01002189D01*
X00340048Y01038157D01*
X00294634Y01079335D01*
X00267304Y01077999D01*
X00265968Y01105329D01*
X00220554Y01146507D01*
X00159323Y01143513D01*
X00200000Y01145502D02*
X00200000Y01299348D01*
X00199348Y01300000D02*
X00100000Y01300000D01*
X00100000Y01350000D02*
X00176000Y01350000D01*
X00176000Y01400000D02*
X00100000Y01400000D01*
X00100000Y01450000D02*
X00189348Y01450000D01*
X00200000Y01460652D02*
X00200000Y01599348D01*
X00199348Y01600000D02*
X00100000Y01600000D01*
X00100000Y01650000D02*
X00176000Y01650000D01*
X00176000Y01700000D02*
X00100000Y01700000D01*
X00100000Y01750000D02*
X00189348Y01750000D01*
X00208082Y01768734D02*
X00235280Y01780000D01*
X00264719Y01780000D01*
X00291918Y01768734D01*
X00300000Y01760652D01*
X00300000Y01930470D01*
X00298457Y01950000D02*
X00100000Y01950000D01*
X00100000Y01900000D02*
X00313842Y01900000D01*
X00350000Y01871846D02*
X00350000Y01780000D01*
X00364719Y01780000D02*
X00335280Y01780000D01*
X00308082Y01768734D01*
X00300000Y01760652D01*
X00250000Y01780000D02*
X00250000Y02033240D01*
X00230771Y02050000D02*
X00100000Y02050000D01*
X00100000Y02000000D02*
X00311317Y02000000D01*
X00300000Y02021685D02*
X00300000Y01972680D01*
X00350000Y02031304D02*
X00350000Y02040220D01*
X00359780Y02050000D02*
X00762359Y02050000D01*
X00750000Y02037641D02*
X00750000Y02150496D01*
X00750496Y02150000D02*
X00545150Y02150000D01*
X00541464Y02150000D02*
X00382646Y02150000D01*
X00382646Y02100000D02*
X00486656Y02100000D01*
X00500000Y02071229D02*
X00500000Y02031466D01*
X00539077Y02000000D02*
X00736957Y02000000D01*
X00750000Y02004094D02*
X00750000Y02004095D01*
X00786456Y02000000D02*
X00786457Y02000000D01*
X00750000Y01970548D02*
X00750000Y01780000D01*
X00764719Y01780000D02*
X00735280Y01780000D01*
X00708082Y01768734D01*
X00700000Y01760652D01*
X00700000Y02240000D01*
X00750000Y02240000D02*
X00750000Y02217503D01*
X00737000Y02200000D02*
X00599459Y02200000D01*
X00600000Y02196585D02*
X00600000Y02240000D01*
X00650000Y02240000D02*
X00650000Y01780000D01*
X00664719Y01780000D02*
X00635280Y01780000D01*
X00608082Y01768734D01*
X00600000Y01760652D01*
X00600000Y02100265D01*
X00599958Y02100000D02*
X00993638Y02100000D01*
X01000000Y02111108D02*
X01000000Y02240000D01*
X00950000Y02240000D02*
X00950000Y02232930D01*
X00966000Y02200000D02*
X01182630Y02200000D01*
X01200000Y02224792D02*
X01200000Y02240000D01*
X01150000Y02240000D02*
X01150000Y01780000D01*
X01175746Y01800000D02*
X00100000Y01800000D01*
X00100000Y01850000D02*
X01171604Y01850000D01*
X01200000Y01766940D02*
X01200000Y01760652D01*
X01210652Y01750000D02*
X01245398Y01750000D01*
X01300000Y01751906D02*
X01300000Y01768200D01*
X01304602Y01750000D02*
X02220000Y01750000D01*
X02220000Y01700000D02*
X01348977Y01700000D01*
X01350000Y01697531D02*
X01350000Y01880073D01*
X01348835Y01881238D02*
X01392183Y01837890D01*
X01453486Y01837890D01*
X01496835Y01881238D01*
X01496835Y01942541D01*
X01453486Y01985890D01*
X01392183Y01985890D01*
X01348835Y01942541D01*
X01348835Y01881238D01*
X01348835Y01900000D02*
X01289373Y01900000D01*
X01300000Y01891800D02*
X01300000Y02042359D01*
X01304775Y02047134D02*
X01304775Y02067637D01*
X01255277Y02067637D01*
X01255277Y02067638D01*
X01304775Y02067638D01*
X01304775Y02088141D01*
X01294911Y02098005D01*
X01300309Y02100241D01*
X01322672Y02122605D01*
X01334775Y02151824D01*
X01334775Y02183451D01*
X01322672Y02212671D01*
X01300309Y02235035D01*
X01288321Y02240000D01*
X01348835Y02240000D01*
X01348835Y02181238D01*
X01392183Y02137890D01*
X01453486Y02137890D01*
X01461000Y02145404D01*
X01461000Y02139348D01*
X01504348Y02096000D01*
X01565652Y02096000D01*
X01606213Y02136562D01*
X01616775Y02126000D01*
X01634999Y02126000D01*
X01634999Y02169999D01*
X01635000Y02169999D01*
X01635000Y02126000D01*
X01653225Y02126000D01*
X01672000Y02144775D01*
X01672000Y02129485D01*
X01683875Y02100816D01*
X01705816Y02078875D01*
X01734485Y02067000D01*
X01765515Y02067000D01*
X01794183Y02078875D01*
X01800000Y02084691D01*
X01800000Y01343055D01*
X01770899Y01350000D02*
X02220000Y01350000D01*
X02215213Y01335290D02*
X02196469Y01343055D01*
X02090373Y01343055D01*
X02073747Y01336167D01*
X02071629Y01335290D01*
X02071628Y01335290D01*
X02063159Y01326821D01*
X02046606Y01310268D01*
X02038842Y01291524D01*
X02038842Y01271235D01*
X02041273Y01265365D01*
X02038842Y01259496D01*
X02038842Y01228531D01*
X02045366Y01212781D01*
X02046606Y01209786D01*
X02055076Y01201317D01*
X02060953Y01195440D01*
X02063159Y01193233D01*
X02071628Y01184764D01*
X02071629Y01184764D01*
X02073747Y01183887D01*
X02090373Y01177000D01*
X02112348Y01177000D01*
X02111000Y01175652D01*
X02111000Y01114348D01*
X02154348Y01071000D01*
X02215652Y01071000D01*
X02220000Y01075348D01*
X02220000Y00914652D01*
X02215652Y00919000D01*
X02154348Y00919000D01*
X02111000Y00875652D01*
X02111000Y00814348D01*
X02142367Y00782981D01*
X02125816Y00776125D01*
X02103875Y00754183D01*
X02100862Y00746909D01*
X02095157Y00751053D01*
X02088426Y00754483D01*
X02081240Y00756818D01*
X02073778Y00758000D01*
X02072000Y00758000D01*
X02072000Y00682001D01*
X02068000Y00682001D01*
X02068000Y00758000D01*
X02066222Y00758000D01*
X02058760Y00756818D01*
X02051574Y00754483D01*
X02044843Y00751053D01*
X02039138Y00746909D01*
X02036125Y00754183D01*
X02014183Y00776125D01*
X01985515Y00788000D01*
X01954485Y00788000D01*
X01925816Y00776125D01*
X01903875Y00754183D01*
X01900862Y00746909D01*
X01895157Y00751053D01*
X01888426Y00754483D01*
X01881240Y00756818D01*
X01873778Y00758000D01*
X01872000Y00758000D01*
X01872000Y00682001D01*
X01868000Y00682001D01*
X01868000Y00758000D01*
X01866222Y00758000D01*
X01858760Y00756818D01*
X01851574Y00754483D01*
X01844843Y00751053D01*
X01838730Y00746612D01*
X01833388Y00741270D01*
X01828947Y00735157D01*
X01825517Y00728426D01*
X01823182Y00721240D01*
X01822000Y00713778D01*
X01822000Y00682000D01*
X01867999Y00682000D01*
X01867999Y00678000D01*
X01822000Y00678000D01*
X01822000Y00646222D01*
X01823182Y00638760D01*
X01825517Y00631574D01*
X01828947Y00624843D01*
X01833388Y00618730D01*
X01838730Y00613388D01*
X01844843Y00608947D01*
X01851574Y00605517D01*
X01858760Y00603182D01*
X01866222Y00602000D01*
X01868000Y00602000D01*
X01868000Y00677999D01*
X01872000Y00677999D01*
X01872000Y00602000D01*
X01873778Y00602000D01*
X01881240Y00603182D01*
X01888426Y00605517D01*
X01895157Y00608947D01*
X01900862Y00613091D01*
X01903875Y00605816D01*
X01925816Y00583875D01*
X01954485Y00572000D01*
X01985515Y00572000D01*
X02014183Y00583875D01*
X02036125Y00605816D01*
X02039138Y00613091D01*
X02044843Y00608947D01*
X02051574Y00605517D01*
X02058760Y00603182D01*
X02066222Y00602000D01*
X02068000Y00602000D01*
X02068000Y00677999D01*
X02072000Y00677999D01*
X02072000Y00602000D01*
X02073778Y00602000D01*
X02081240Y00603182D01*
X02088426Y00605517D01*
X02095157Y00608947D01*
X02100862Y00613091D01*
X02103875Y00605816D01*
X02125816Y00583875D01*
X02154485Y00572000D01*
X02109691Y00600000D02*
X02030309Y00600000D01*
X02050000Y00606319D02*
X02050000Y00500000D01*
X02000000Y00500000D02*
X02000000Y00578000D01*
X01950000Y00573858D02*
X01950000Y00500000D01*
X01900000Y00500000D02*
X01900000Y00612465D01*
X01909691Y00600000D02*
X01680309Y00600000D01*
X01686125Y00605816D02*
X01664183Y00583875D01*
X01635515Y00572000D01*
X01604485Y00572000D01*
X01575816Y00583875D01*
X01553875Y00605816D01*
X01550862Y00613091D01*
X01545157Y00608947D01*
X01538426Y00605517D01*
X01531240Y00603182D01*
X01523778Y00602000D01*
X01522000Y00602000D01*
X01522000Y00677999D01*
X01518000Y00677999D01*
X01518000Y00602000D01*
X01516222Y00602000D01*
X01508760Y00603182D01*
X01501574Y00605517D01*
X01494843Y00608947D01*
X01489138Y00613091D01*
X01486125Y00605816D01*
X01464183Y00583875D01*
X01435515Y00572000D01*
X01404485Y00572000D01*
X01375816Y00583875D01*
X01370000Y00589691D01*
X01364183Y00583875D01*
X01335515Y00572000D01*
X01304485Y00572000D01*
X01275816Y00583875D01*
X01253875Y00605816D01*
X01250862Y00613091D01*
X01245157Y00608947D01*
X01238426Y00605517D01*
X01231240Y00603182D01*
X01223778Y00602000D01*
X01222000Y00602000D01*
X01222000Y00677999D01*
X01218000Y00677999D01*
X01218000Y00602000D01*
X01216222Y00602000D01*
X01208760Y00603182D01*
X01201574Y00605517D01*
X01194843Y00608947D01*
X01188730Y00613388D01*
X01183388Y00618730D01*
X01178947Y00624843D01*
X01175517Y00631574D01*
X01173182Y00638760D01*
X01172000Y00646222D01*
X01172000Y00678000D01*
X01217999Y00678000D01*
X01217999Y00682000D01*
X01172000Y00682000D01*
X01172000Y00713778D01*
X01173182Y00721240D01*
X01175517Y00728426D01*
X01178947Y00735157D01*
X01183388Y00741270D01*
X01188730Y00746612D01*
X01194843Y00751053D01*
X01201574Y00754483D01*
X01208760Y00756818D01*
X01216222Y00758000D01*
X01218000Y00758000D01*
X01218000Y00682001D01*
X01222000Y00682001D01*
X01222000Y00758000D01*
X01223778Y00758000D01*
X01231240Y00756818D01*
X01238426Y00754483D01*
X01245157Y00751053D01*
X01250862Y00746909D01*
X01253875Y00754183D01*
X01275691Y00776000D01*
X01229348Y00776000D01*
X01186000Y00819348D01*
X01186000Y00880652D01*
X01229348Y00924000D01*
X01290652Y00924000D01*
X01310669Y00903982D01*
X01327065Y00920378D01*
X01388368Y00920378D01*
X01408307Y00900439D01*
X01429427Y00921559D01*
X01490730Y00921559D01*
X01519319Y00892970D01*
X01519319Y00898818D01*
X01568818Y00898818D01*
X01568818Y00898819D01*
X01519319Y00898819D01*
X01519319Y00919322D01*
X01527602Y00927606D01*
X01489319Y00965889D01*
X01489319Y01031749D01*
X01535889Y01078319D01*
X01601749Y01078319D01*
X01633228Y01046839D01*
X01675889Y01089500D01*
X01741749Y01089500D01*
X01788319Y01042930D01*
X01788319Y00977070D01*
X01750035Y00938787D01*
X01758319Y00930503D01*
X01758319Y00910000D01*
X01708820Y00910000D01*
X01708820Y00909999D01*
X01758319Y00909999D01*
X01758319Y00889496D01*
X01729322Y00860500D01*
X01708819Y00860500D01*
X01708819Y00909999D01*
X01708818Y00909999D01*
X01708818Y00860500D01*
X01688315Y00860500D01*
X01659319Y00889496D01*
X01659319Y00909999D01*
X01708818Y00909999D01*
X01708818Y00910000D01*
X01659319Y00910000D01*
X01659319Y00930503D01*
X01667602Y00938787D01*
X01644409Y00961980D01*
X01610035Y00927606D01*
X01618319Y00919322D01*
X01618319Y00898819D01*
X01568820Y00898819D01*
X01568820Y00898818D01*
X01618319Y00898818D01*
X01618319Y00878315D01*
X01589322Y00849319D01*
X01568819Y00849319D01*
X01568819Y00898818D01*
X01568818Y00898818D01*
X01568818Y00849319D01*
X01548315Y00849319D01*
X01534079Y00863556D01*
X01534079Y00816907D01*
X01490730Y00773559D01*
X01466749Y00773559D01*
X01486125Y00754183D01*
X01489138Y00746909D01*
X01494843Y00751053D01*
X01501574Y00754483D01*
X01508760Y00756818D01*
X01516222Y00758000D01*
X01518000Y00758000D01*
X01518000Y00682001D01*
X01522000Y00682001D01*
X01522000Y00758000D01*
X01523778Y00758000D01*
X01531240Y00756818D01*
X01538426Y00754483D01*
X01545157Y00751053D01*
X01550862Y00746909D01*
X01553875Y00754183D01*
X01575816Y00776125D01*
X01604485Y00788000D01*
X01635515Y00788000D01*
X01664183Y00776125D01*
X01686125Y00754183D01*
X01698000Y00725515D01*
X01698000Y00634485D01*
X01686125Y00605816D01*
X01650000Y00578000D02*
X01650000Y00500000D01*
X01600000Y00500000D02*
X01600000Y00573858D01*
X01559691Y00600000D02*
X01480309Y00600000D01*
X01500000Y00606319D02*
X01500000Y00500000D01*
X01450000Y00500000D02*
X01450000Y00578000D01*
X01400000Y00573858D02*
X01400000Y00500000D01*
X01350000Y00500000D02*
X01350000Y00578000D01*
X01300000Y00573858D02*
X01300000Y00500000D01*
X01250000Y00500000D02*
X01250000Y00612465D01*
X01259691Y00600000D02*
X01030309Y00600000D01*
X01036125Y00605816D02*
X01014183Y00583875D01*
X00985515Y00572000D01*
X00954485Y00572000D01*
X00925816Y00583875D01*
X00920000Y00589691D01*
X00914183Y00583875D01*
X00885515Y00572000D01*
X00854485Y00572000D01*
X00825816Y00583875D01*
X00820000Y00589691D01*
X00814183Y00583875D01*
X00785515Y00572000D01*
X00754485Y00572000D01*
X00725816Y00583875D01*
X00703875Y00605816D01*
X00700862Y00613091D01*
X00695157Y00608947D01*
X00688426Y00605517D01*
X00681240Y00603182D01*
X00673778Y00602000D01*
X00672000Y00602000D01*
X00672000Y00677999D01*
X00668000Y00677999D01*
X00668000Y00602000D01*
X00666222Y00602000D01*
X00658760Y00603182D01*
X00651574Y00605517D01*
X00644843Y00608947D01*
X00638730Y00613388D01*
X00633388Y00618730D01*
X00628947Y00624843D01*
X00625517Y00631574D01*
X00623182Y00638760D01*
X00622000Y00646222D01*
X00622000Y00678000D01*
X00667999Y00678000D01*
X00667999Y00682000D01*
X00622000Y00682000D01*
X00622000Y00713778D01*
X00623182Y00721240D01*
X00625517Y00728426D01*
X00628947Y00735157D01*
X00633388Y00741270D01*
X00638730Y00746612D01*
X00644843Y00751053D01*
X00651574Y00754483D01*
X00658760Y00756818D01*
X00666222Y00758000D01*
X00668000Y00758000D01*
X00668000Y00682001D01*
X00672000Y00682001D01*
X00672000Y00758000D01*
X00673778Y00758000D01*
X00681240Y00756818D01*
X00688426Y00754483D01*
X00695157Y00751053D01*
X00700862Y00746909D01*
X00703875Y00754183D01*
X00725816Y00776125D01*
X00754485Y00788000D01*
X00785515Y00788000D01*
X00814183Y00776125D01*
X00820000Y00770309D01*
X00825816Y00776125D01*
X00854485Y00788000D01*
X00885515Y00788000D01*
X00914183Y00776125D01*
X00920000Y00770309D01*
X00925816Y00776125D01*
X00954485Y00788000D01*
X00985515Y00788000D01*
X01014183Y00776125D01*
X01036125Y00754183D01*
X01048000Y00725515D01*
X01048000Y00634485D01*
X01036125Y00605816D01*
X01000000Y00578000D02*
X01000000Y00500000D01*
X00950000Y00500000D02*
X00950000Y00573858D01*
X00900000Y00578000D02*
X00900000Y00500000D01*
X00850000Y00500000D02*
X00850000Y00573858D01*
X00800000Y00578000D02*
X00800000Y00500000D01*
X00750000Y00500000D02*
X00750000Y00573858D01*
X00709691Y00600000D02*
X00480309Y00600000D01*
X00450000Y00578000D02*
X00450000Y00500000D01*
X00400000Y00500000D02*
X00400000Y00573858D01*
X00350000Y00578000D02*
X00350000Y00500000D01*
X00300000Y00500000D02*
X00300000Y00573858D01*
X00259691Y00600000D02*
X00120000Y00600000D01*
X00100000Y00620000D02*
X00100000Y02140000D01*
X00110000Y02150000D02*
X00207906Y02150000D01*
X00207906Y02100000D02*
X00100000Y02100000D01*
X00382646Y02200000D02*
X00487155Y02200000D01*
X00500000Y02225622D02*
X00500000Y02240000D01*
X00450000Y02240000D02*
X00450000Y02038945D01*
X00400000Y02038945D02*
X00400000Y02240000D01*
X00500000Y02150268D02*
X00500000Y02146582D01*
X00550000Y02146582D02*
X00550000Y02150268D01*
X00600000Y02150268D02*
X00600000Y02146582D01*
X00545150Y02100000D02*
X00541464Y02100000D01*
X00550000Y02052030D02*
X00550000Y01973630D01*
X00450000Y01864205D02*
X00450000Y01780000D01*
X00464719Y01780000D02*
X00435280Y01780000D01*
X00408082Y01768734D01*
X00400000Y01760652D01*
X00400000Y01864205D01*
X00364719Y01780000D02*
X00391918Y01768734D01*
X00400000Y01760652D01*
X00464719Y01780000D02*
X00491918Y01768734D01*
X00500000Y01760652D01*
X00564719Y01780000D02*
X00591918Y01768734D01*
X00600000Y01760652D01*
X00664719Y01780000D02*
X00691918Y01768734D01*
X00700000Y01760652D01*
X00764719Y01780000D02*
X00791918Y01768734D01*
X00800000Y01760652D01*
X00864719Y01780000D02*
X00891918Y01768734D01*
X00900000Y01760652D01*
X00964719Y01780000D02*
X00991918Y01768734D01*
X01000000Y01760652D01*
X01064719Y01780000D02*
X01091918Y01768734D01*
X01100000Y01760652D01*
X01100000Y01599348D02*
X01100000Y01460652D01*
X01091918Y01468734D02*
X01064719Y01480000D01*
X01035280Y01480000D01*
X01008082Y01468734D01*
X01000000Y01460652D01*
X01000000Y01599348D01*
X01008082Y01591266D01*
X01035280Y01580000D01*
X01064719Y01580000D01*
X01091918Y01591266D01*
X01100000Y01599348D01*
X01108082Y01591266D01*
X01135280Y01580000D01*
X01164719Y01580000D01*
X01191918Y01591266D01*
X01211000Y01610348D01*
X01211000Y01550000D02*
X00100000Y01550000D01*
X00100000Y01500000D02*
X01211000Y01500000D01*
X01211000Y01450000D02*
X01110652Y01450000D01*
X01112734Y01447918D02*
X01091918Y01468734D01*
X01112734Y01447918D02*
X01117701Y01435926D01*
X01121336Y01439561D01*
X01126939Y01443632D01*
X01133110Y01446776D01*
X01139697Y01448916D01*
X01146537Y01450000D01*
X01149999Y01450000D01*
X01149999Y01380001D01*
X01150000Y01380001D01*
X01150000Y01580000D01*
X01050000Y01580000D02*
X01050000Y01480000D01*
X01000000Y01460652D02*
X00991918Y01468734D01*
X00964719Y01480000D01*
X00935280Y01480000D01*
X00908082Y01468734D01*
X00900000Y01460652D01*
X00900000Y01599348D01*
X00908082Y01591266D01*
X00935280Y01580000D01*
X00964719Y01580000D01*
X00991918Y01591266D01*
X01000000Y01599348D01*
X00950000Y01580000D02*
X00950000Y01480000D01*
X00900000Y01460652D02*
X00891918Y01468734D01*
X00864719Y01480000D01*
X00835280Y01480000D01*
X00808082Y01468734D01*
X00800000Y01460652D01*
X00800000Y01599348D01*
X00808082Y01591266D01*
X00835280Y01580000D01*
X00864719Y01580000D01*
X00891918Y01591266D01*
X00900000Y01599348D01*
X00850000Y01580000D02*
X00850000Y01480000D01*
X00800000Y01460652D02*
X00791918Y01468734D01*
X00764719Y01480000D01*
X00735280Y01480000D01*
X00708082Y01468734D01*
X00700000Y01460652D01*
X00700000Y01599348D01*
X00708082Y01591266D01*
X00735280Y01580000D01*
X00764719Y01580000D01*
X00791918Y01591266D01*
X00800000Y01599348D01*
X00750000Y01580000D02*
X00750000Y01480000D01*
X00700000Y01460652D02*
X00691918Y01468734D01*
X00664719Y01480000D01*
X00635280Y01480000D01*
X00608082Y01468734D01*
X00600000Y01460652D01*
X00600000Y01599348D01*
X00608082Y01591266D01*
X00635280Y01580000D01*
X00664719Y01580000D01*
X00691918Y01591266D01*
X00700000Y01599348D01*
X00650000Y01580000D02*
X00650000Y01480000D01*
X00600000Y01460652D02*
X00591918Y01468734D01*
X00564719Y01480000D01*
X00535280Y01480000D01*
X00508082Y01468734D01*
X00500000Y01460652D01*
X00500000Y01599348D01*
X00508082Y01591266D01*
X00535280Y01580000D01*
X00564719Y01580000D01*
X00591918Y01591266D01*
X00600000Y01599348D01*
X00550000Y01580000D02*
X00550000Y01480000D01*
X00500000Y01460652D02*
X00491918Y01468734D01*
X00464719Y01480000D01*
X00435280Y01480000D01*
X00408082Y01468734D01*
X00400000Y01460652D01*
X00400000Y01599348D01*
X00408082Y01591266D01*
X00435280Y01580000D01*
X00464719Y01580000D01*
X00491918Y01591266D01*
X00500000Y01599348D01*
X00450000Y01580000D02*
X00450000Y01480000D01*
X00400000Y01460652D02*
X00391918Y01468734D01*
X00364719Y01480000D01*
X00335280Y01480000D01*
X00308082Y01468734D01*
X00300000Y01460652D01*
X00250000Y01480000D02*
X00250000Y01580000D01*
X00300000Y01599348D02*
X00308082Y01591266D01*
X00335280Y01580000D01*
X00364719Y01580000D01*
X00391918Y01591266D01*
X00400000Y01599348D01*
X00350000Y01580000D02*
X00350000Y01480000D01*
X00300000Y01299348D02*
X00308082Y01291266D01*
X00316565Y01287752D01*
X00287654Y01258841D01*
X00287654Y01250000D02*
X00100000Y01250000D01*
X00100000Y01200000D02*
X00287654Y01200000D01*
X00300000Y01185191D02*
X00300000Y01074470D01*
X00266228Y01100000D02*
X00421805Y01100000D01*
X00400000Y01121805D02*
X00400000Y00994494D01*
X00394494Y01000000D02*
X00587508Y01000000D01*
X00600000Y00964578D02*
X00600000Y00500000D01*
X00550000Y00500000D02*
X00550000Y01280000D01*
X00564719Y01280000D02*
X00535280Y01280000D01*
X00508082Y01291266D01*
X00500000Y01299348D01*
X00450000Y01280000D02*
X00450000Y01234000D01*
X00435653Y01250000D02*
X00728104Y01250000D01*
X00750000Y01271896D02*
X00750000Y01280000D01*
X00700000Y01299348D02*
X00691918Y01291266D01*
X00664719Y01280000D01*
X00635280Y01280000D01*
X00608082Y01291266D01*
X00600000Y01299348D01*
X00600000Y01055422D01*
X00594578Y01050000D02*
X00326987Y01050000D01*
X00350000Y01002189D02*
X00350000Y01154189D01*
X00392457Y01150000D02*
X00100000Y01150000D01*
X00100000Y01100000D02*
X00119869Y01100000D01*
X00120497Y01050000D02*
X00100000Y01050000D01*
X00100000Y01000000D02*
X00161800Y01000000D01*
X00150000Y01010699D02*
X00150000Y00570000D01*
X00200000Y00606319D02*
X00200000Y00520000D01*
X00220000Y00500000D02*
X02120000Y00500000D01*
X02100000Y00500000D02*
X02100000Y00612465D01*
X02072000Y00650000D02*
X02068000Y00650000D01*
X02068000Y00700000D02*
X02072000Y00700000D01*
X02072000Y00750000D02*
X02068000Y00750000D01*
X02050000Y00753681D02*
X02050000Y00840500D01*
X02040000Y00840500D02*
X02060503Y00840500D01*
X02089500Y00869496D01*
X02089500Y00889999D01*
X02040001Y00889999D01*
X02040001Y00890000D01*
X02089500Y00890000D01*
X02089500Y00910503D01*
X02081217Y00918787D01*
X02119500Y00957070D01*
X02119500Y01022930D01*
X02072930Y01069500D01*
X02007070Y01069500D01*
X01960500Y01022930D01*
X01960500Y00957070D01*
X01998783Y00918787D01*
X01990500Y00910503D01*
X01990500Y00890000D01*
X02039999Y00890000D01*
X02039999Y00889999D01*
X01990500Y00889999D01*
X01990500Y00869496D01*
X02019496Y00840500D01*
X02039999Y00840500D01*
X02039999Y00889999D01*
X02040000Y00889999D01*
X02040000Y00840500D01*
X02039999Y00850000D02*
X02040000Y00850000D01*
X02009996Y00850000D02*
X01590003Y00850000D01*
X01600000Y00859997D02*
X01600000Y00786142D01*
X01650000Y00782000D02*
X01650000Y00956389D01*
X01656389Y00950000D02*
X01632430Y00950000D01*
X01618319Y00900000D02*
X01659319Y00900000D01*
X01700000Y00909999D02*
X01700000Y00910000D01*
X01708818Y00900000D02*
X01708819Y00900000D01*
X01750000Y00909999D02*
X01750000Y00910000D01*
X01758319Y00900000D02*
X01990500Y00900000D01*
X02000000Y00889999D02*
X02000000Y00890000D01*
X02000000Y00859996D02*
X02000000Y00782000D01*
X02037858Y00750000D02*
X02043393Y00750000D01*
X02096607Y00750000D02*
X02102142Y00750000D01*
X02100000Y00747535D02*
X02100000Y00937570D01*
X02112430Y00950000D02*
X02220000Y00950000D01*
X02200000Y00919000D02*
X02200000Y01071000D01*
X02220000Y01050000D02*
X02092430Y01050000D01*
X02100000Y01042430D02*
X02100000Y01177000D01*
X02071629Y01184764D02*
X02071629Y01184764D01*
X02060953Y01195440D02*
X02060953Y01195440D01*
X02056393Y01200000D02*
X01932410Y01200000D01*
X01900000Y01177434D02*
X01900000Y00747535D01*
X01902142Y00750000D02*
X01896607Y00750000D01*
X01872000Y00750000D02*
X01868000Y00750000D01*
X01850000Y00753681D02*
X01850000Y01177000D01*
X01800000Y01177000D02*
X01800000Y00500000D01*
X01750000Y00500000D02*
X01750000Y00881178D01*
X01700000Y00860500D02*
X01700000Y00500000D01*
X01550000Y00500000D02*
X01550000Y00612465D01*
X01522000Y00650000D02*
X01518000Y00650000D01*
X01518000Y00700000D02*
X01522000Y00700000D01*
X01522000Y00750000D02*
X01518000Y00750000D01*
X01500000Y00753681D02*
X01500000Y00782829D01*
X01517171Y00800000D02*
X02125348Y00800000D01*
X02111000Y00850000D02*
X02070003Y00850000D01*
X02050000Y00889999D02*
X02050000Y00890000D01*
X02089500Y00900000D02*
X02135348Y00900000D01*
X02150000Y00914652D02*
X02150000Y01075348D01*
X02125348Y01100000D02*
X01517171Y01100000D01*
X01534079Y01116907D02*
X01534079Y01178211D01*
X01490730Y01221559D01*
X01429427Y01221559D01*
X01408307Y01200439D01*
X01388368Y01220378D01*
X01327065Y01220378D01*
X01310669Y01203982D01*
X01307327Y01207324D01*
X01329500Y01229496D01*
X01329500Y01249999D01*
X01280001Y01249999D01*
X01280001Y01250000D01*
X01329500Y01250000D01*
X01329500Y01270503D01*
X01321217Y01278787D01*
X01335765Y01293336D01*
X01336588Y01292513D01*
X01361511Y01282189D01*
X01388488Y01282189D01*
X01412500Y01292135D01*
X01436511Y01282189D01*
X01463488Y01282189D01*
X01488412Y01292513D01*
X01491899Y01296000D01*
X01658101Y01296000D01*
X01661588Y01292513D01*
X01686511Y01282189D01*
X01713488Y01282189D01*
X01738412Y01292513D01*
X01754759Y01308860D01*
X01752000Y01302199D01*
X01752000Y01217855D01*
X01759396Y01200000D02*
X01512289Y01200000D01*
X01500000Y01212289D02*
X01500000Y01296000D01*
X01550000Y01296000D02*
X01550000Y01078319D01*
X01534079Y01116907D02*
X01490730Y01073559D01*
X01429427Y01073559D01*
X01409488Y01093498D01*
X01388368Y01072378D01*
X01327065Y01072378D01*
X01307047Y01092396D01*
X01290652Y01076000D01*
X01229348Y01076000D01*
X01250000Y01076000D02*
X01250000Y00924000D01*
X01205348Y00900000D02*
X01180003Y00900000D01*
X01200000Y00894652D02*
X01200000Y00977570D01*
X01219500Y01000000D02*
X01489319Y01000000D01*
X01500000Y01042430D02*
X01500000Y01082829D01*
X01507570Y01050000D02*
X01219500Y01050000D01*
X01300000Y01085348D02*
X01300000Y00914652D01*
X01350000Y00920378D02*
X01350000Y01072378D01*
X01400000Y01084010D02*
X01400000Y00908746D01*
X01450000Y00921559D02*
X01450000Y01073559D01*
X01534079Y01150000D02*
X02111000Y01150000D01*
X02050000Y01206393D02*
X02050000Y01069500D01*
X02000000Y01062430D02*
X02000000Y02084691D01*
X01994183Y02078875D02*
X02016125Y02100816D01*
X02019138Y02108091D01*
X02024843Y02103947D01*
X02031574Y02100517D01*
X02038760Y02098182D01*
X02046222Y02097000D01*
X02048000Y02097000D01*
X02048000Y02172999D01*
X02052000Y02172999D01*
X02052000Y02097000D01*
X02053778Y02097000D01*
X02061240Y02098182D01*
X02068426Y02100517D01*
X02075157Y02103947D01*
X02081270Y02108388D01*
X02086612Y02113730D01*
X02091053Y02119843D01*
X02094483Y02126574D01*
X02096818Y02133760D01*
X02098000Y02141222D01*
X02098000Y02173000D01*
X02052001Y02173000D01*
X02052001Y02177000D01*
X02098000Y02177000D01*
X02098000Y02208778D01*
X02096818Y02216240D01*
X02094483Y02223426D01*
X02092311Y02227689D01*
X02220000Y02100000D01*
X02066836Y02100000D01*
X02052000Y02100000D02*
X02048000Y02100000D01*
X02033164Y02100000D02*
X02015309Y02100000D01*
X01994183Y02078875D02*
X01965515Y02067000D01*
X01934485Y02067000D01*
X01905816Y02078875D01*
X01900000Y02084691D01*
X01900000Y01343049D01*
X01850000Y01340027D02*
X01850000Y02067000D01*
X01834485Y02067000D02*
X01865515Y02067000D01*
X01894183Y02078875D01*
X01900000Y02084691D01*
X01834485Y02067000D02*
X01805816Y02078875D01*
X01800000Y02084691D01*
X01750000Y02067000D02*
X01750000Y01463043D01*
X01770899Y01450000D02*
X02220000Y01450000D01*
X02220000Y01400000D02*
X01792811Y01400000D01*
X01700000Y01463043D02*
X01700000Y02084691D01*
X01684691Y02100000D02*
X01569652Y02100000D01*
X01550000Y02096000D02*
X01550000Y01651819D01*
X01576774Y01651819D02*
X01495588Y01651819D01*
X01438181Y01594412D01*
X01438181Y01513226D01*
X01495588Y01455819D01*
X01576774Y01455819D01*
X01634181Y01513226D01*
X01634181Y01594412D01*
X01576774Y01651819D01*
X01578593Y01650000D02*
X02220000Y01650000D01*
X02220000Y01600000D02*
X02176166Y01600000D01*
X02194181Y01581985D02*
X02154348Y01621819D01*
X02128181Y01621819D01*
X02128181Y01555820D01*
X02124181Y01555820D01*
X02124181Y01621819D01*
X02098015Y01621819D01*
X02058181Y01581985D01*
X02058181Y01555819D01*
X02124180Y01555819D01*
X02124180Y01551819D01*
X02058181Y01551819D01*
X02058181Y01525652D01*
X02098015Y01485819D01*
X02124181Y01485819D01*
X02124181Y01551818D01*
X02128181Y01551818D01*
X02128181Y01485819D01*
X02154348Y01485819D01*
X02194181Y01525652D01*
X02194181Y01551819D01*
X02128182Y01551819D01*
X02128182Y01555819D01*
X02194181Y01555819D01*
X02194181Y01581985D01*
X02194181Y01550000D02*
X02220000Y01550000D01*
X02220000Y01500000D02*
X02168529Y01500000D01*
X02150000Y01485819D02*
X02150000Y01343055D01*
X02100000Y01343055D02*
X02100000Y01485819D01*
X02083833Y01500000D02*
X01620955Y01500000D01*
X01600000Y01479045D02*
X01600000Y01454000D01*
X01550000Y01454000D02*
X01550000Y01455819D01*
X01500000Y01455819D02*
X01500000Y01454000D01*
X01450000Y01454000D02*
X01450000Y01501407D01*
X01451407Y01500000D02*
X01339000Y01500000D01*
X01339000Y01550000D02*
X01438181Y01550000D01*
X01443769Y01600000D02*
X01339000Y01600000D01*
X01344835Y01650000D02*
X01493769Y01650000D01*
X01500000Y01651819D02*
X01500000Y02100348D01*
X01500348Y02100000D02*
X01299727Y02100000D01*
X01300000Y02100113D02*
X01300000Y02092917D01*
X01300000Y02067638D02*
X01300000Y02067637D01*
X01304775Y02050000D02*
X02220000Y02050000D01*
X02220000Y02000000D02*
X01141638Y02000000D01*
X01141638Y02050000D02*
X01205776Y02050000D01*
X01205776Y02047134D02*
X01234772Y02018138D01*
X01255275Y02018138D01*
X01255275Y02067636D01*
X01255276Y02067636D01*
X01255276Y02018138D01*
X01275779Y02018138D01*
X01304775Y02047134D01*
X01255276Y02050000D02*
X01255275Y02050000D01*
X01255274Y02067637D02*
X01205776Y02067637D01*
X01205776Y02047134D01*
X01205776Y02067638D02*
X01255274Y02067638D01*
X01255274Y02067637D01*
X01250000Y02067637D02*
X01250000Y02067638D01*
X01205776Y02067638D02*
X01205776Y02088141D01*
X01215640Y02098005D01*
X01210242Y02100241D01*
X01210824Y02100000D02*
X01141638Y02100000D01*
X01176531Y02150000D02*
X00964930Y02150000D01*
X00950000Y02135070D02*
X00950000Y02052981D01*
X00952981Y02050000D02*
X00956318Y02050000D01*
X00992637Y02050000D02*
X00992638Y02050000D01*
X00992637Y02000000D02*
X00992638Y02000000D01*
X00900000Y02083594D02*
X00900000Y02104500D01*
X00850000Y02108070D02*
X00850000Y02080068D01*
X00819932Y02050000D02*
X00810555Y02050000D01*
X00800000Y02053594D02*
X00800000Y02134500D01*
X00786500Y02150000D02*
X00786499Y02150000D01*
X00750000Y02183999D02*
X00750000Y02184000D01*
X00786499Y02200000D02*
X00786500Y02200000D01*
X00800000Y02233500D02*
X00800000Y02240000D01*
X00786456Y02050000D02*
X00786457Y02050000D01*
X01050000Y02148094D02*
X01050000Y02240000D01*
X01100000Y02240000D02*
X01100000Y02146384D01*
X01250000Y02018138D02*
X01250000Y01979500D01*
X01249369Y01950000D02*
X01249371Y01950000D01*
X01250000Y01930000D02*
X01250000Y01929999D01*
X01298870Y01950000D02*
X01356293Y01950000D01*
X01350000Y01943707D02*
X01350000Y02180073D01*
X01348835Y02200000D02*
X01327921Y02200000D01*
X01300000Y02235162D02*
X01300000Y02240000D01*
X01334020Y02150000D02*
X01380073Y02150000D01*
X01400000Y02137890D02*
X01400000Y01985890D01*
X01450000Y01985890D02*
X01450000Y02137890D01*
X01569652Y02240000D02*
X01680071Y02240000D01*
X01672000Y02220515D01*
X01672000Y02195225D01*
X01653225Y02214000D01*
X01635000Y02214000D01*
X01635000Y02170001D01*
X01634999Y02170001D01*
X01634999Y02214000D01*
X01616775Y02214000D01*
X01606213Y02203438D01*
X01569652Y02240000D01*
X01600000Y02240000D02*
X01600000Y02209651D01*
X01634999Y02200000D02*
X01635000Y02200000D01*
X01650000Y02214000D02*
X01650000Y02240000D01*
X01667225Y02200000D02*
X01672000Y02200000D01*
X01634999Y02150000D02*
X01635000Y02150000D01*
X01650000Y02126000D02*
X01650000Y01454000D01*
X01634181Y01550000D02*
X02058181Y01550000D01*
X02100000Y01551819D02*
X02100000Y01555819D01*
X02124181Y01550000D02*
X02128181Y01550000D01*
X02150000Y01551819D02*
X02150000Y01555819D01*
X02128181Y01600000D02*
X02124181Y01600000D01*
X02100000Y01621819D02*
X02100000Y02220000D01*
X02098000Y02200000D02*
X02120000Y02200000D01*
X02150000Y02170000D02*
X02150000Y01621819D01*
X02076196Y01600000D02*
X01628593Y01600000D01*
X01600000Y01628593D02*
X01600000Y02130348D01*
X01489376Y01950000D02*
X02220000Y01950000D01*
X02220000Y01900000D02*
X01496835Y01900000D01*
X01465597Y01850000D02*
X02220000Y01850000D01*
X02220000Y01800000D02*
X01322994Y01800000D01*
X01327136Y01850000D02*
X01380073Y01850000D01*
X01400000Y01837890D02*
X01400000Y01448094D01*
X01404602Y01450000D02*
X01339000Y01450000D01*
X01350000Y01413043D02*
X01350000Y01662469D01*
X01450000Y01606231D02*
X01450000Y01837890D01*
X01173061Y01443632D02*
X01166890Y01446776D01*
X01160303Y01448916D01*
X01153463Y01450000D01*
X01150000Y01450000D01*
X01150000Y01380001D01*
X01150001Y01380000D02*
X01194000Y01380000D01*
X01194000Y01409463D01*
X01192916Y01416303D01*
X01190776Y01422890D01*
X01187632Y01429061D01*
X01183561Y01434664D01*
X01178664Y01439561D01*
X01173061Y01443632D01*
X01194000Y01400000D02*
X01211000Y01400000D01*
X01194000Y01379999D02*
X01150001Y01379999D01*
X01150001Y01380000D01*
X01150000Y01379999D02*
X01150000Y01310000D01*
X01153463Y01310000D01*
X01160303Y01311083D01*
X01166890Y01313224D01*
X01173061Y01316368D01*
X01178664Y01320439D01*
X01183561Y01325336D01*
X01187632Y01330939D01*
X01190776Y01337110D01*
X01192916Y01343697D01*
X01194000Y01350537D01*
X01194000Y01379999D01*
X01193915Y01350000D02*
X01200500Y01350000D01*
X01150000Y01350000D02*
X01149999Y01350000D01*
X01100652Y01300000D02*
X01217570Y01300000D01*
X01250000Y01250000D02*
X01250000Y01249999D01*
X01205348Y01200000D02*
X01079197Y01200000D01*
X01000000Y01136472D02*
X01000000Y00984472D01*
X00950000Y00959927D02*
X00950000Y01148104D01*
X00951896Y01150000D02*
X00961017Y01150000D01*
X00900000Y01125291D02*
X00900000Y00943291D01*
X00940073Y00950000D02*
X00855203Y00950000D01*
X00850000Y00955203D02*
X00850000Y01141175D01*
X00841175Y01150000D02*
X00837407Y01150000D01*
X00800000Y01134898D02*
X00800000Y00982898D01*
X00728104Y00950000D02*
X00719438Y00950000D01*
X00700000Y00930562D02*
X00700000Y00747535D01*
X00702142Y00750000D02*
X00696607Y00750000D01*
X00672000Y00750000D02*
X00668000Y00750000D01*
X00650000Y00753681D02*
X00650000Y00930500D01*
X00614578Y00950000D02*
X00435653Y00950000D01*
X00450000Y00934000D02*
X00450000Y01086000D01*
X00500000Y01088892D02*
X00500000Y00931108D01*
X00531108Y00900000D02*
X00717654Y00900000D01*
X00745899Y00850000D02*
X00540457Y00850000D01*
X00511108Y00800000D02*
X01205348Y00800000D01*
X01200000Y00805348D02*
X01200000Y00753681D01*
X01193393Y00750000D02*
X01037858Y00750000D01*
X01000000Y00782000D02*
X01000000Y00836472D01*
X00961017Y00850000D02*
X00837407Y00850000D01*
X00850000Y00862592D02*
X00850000Y00786142D01*
X00800000Y00782000D02*
X00800000Y00834898D01*
X00750000Y00845899D02*
X00750000Y00786142D01*
X00672000Y00700000D02*
X00668000Y00700000D01*
X00650000Y00682000D02*
X00650000Y00678000D01*
X00668000Y00650000D02*
X00672000Y00650000D01*
X00700000Y00612465D02*
X00700000Y00500000D01*
X00650000Y00500000D02*
X00650000Y00606319D01*
X00622000Y00650000D02*
X00498000Y00650000D01*
X00498000Y00700000D02*
X00622000Y00700000D01*
X00643393Y00750000D02*
X00487858Y00750000D01*
X00500000Y00788892D02*
X00500000Y00500000D01*
X00250000Y00500000D02*
X00250000Y00612465D01*
X00222000Y00650000D02*
X00218000Y00650000D01*
X00200000Y00678000D02*
X00200000Y00682000D01*
X00218000Y00700000D02*
X00222000Y00700000D01*
X00222000Y00750000D02*
X00218000Y00750000D01*
X00200000Y00753681D02*
X00200000Y00885771D01*
X00173400Y00900000D02*
X00173398Y00900000D01*
X00170906Y00897251D02*
X00200461Y00929845D01*
X00200461Y00929846D02*
X00167866Y00959401D01*
X00155624Y00945900D01*
X00157405Y00909493D01*
X00170906Y00897251D01*
X00167874Y00900000D02*
X00100000Y00900000D01*
X00100000Y00950000D02*
X00159342Y00950000D01*
X00178234Y00950000D02*
X00178236Y00950000D01*
X00200000Y00930266D02*
X00200000Y00930264D01*
X00200000Y00929337D02*
X00200000Y00929336D01*
X00232794Y00900000D02*
X00287654Y00900000D01*
X00300000Y00885191D02*
X00300000Y00786142D01*
X00350000Y00782000D02*
X00350000Y00854189D01*
X00392457Y00850000D02*
X00100000Y00850000D01*
X00100000Y00800000D02*
X00421805Y00800000D01*
X00400000Y00786142D02*
X00400000Y00821805D01*
X00450000Y00786000D02*
X00450000Y00782000D01*
X00252142Y00750000D02*
X00246607Y00750000D01*
X00250000Y00747535D02*
X00250000Y00928976D01*
X00193393Y00750000D02*
X00100000Y00750000D01*
X00100000Y00700000D02*
X00172000Y00700000D01*
X00172000Y00650000D02*
X00100000Y00650000D01*
X00511108Y01100000D02*
X00617508Y01100000D01*
X00650000Y01109999D02*
X00650000Y01110000D01*
X00637004Y01150000D02*
X00540457Y01150000D01*
X00650000Y01159500D02*
X00650000Y01280000D01*
X00600000Y01299348D02*
X00591918Y01291266D01*
X00564719Y01280000D01*
X00667007Y01150000D02*
X00667008Y01150000D01*
X00739438Y01050000D02*
X01060500Y01050000D01*
X01070321Y00950000D02*
X01090500Y00950000D01*
X01100000Y00930000D02*
X01100000Y00929999D01*
X01099996Y00900000D02*
X01079197Y00900000D01*
X01100000Y00899996D02*
X01100000Y00500000D01*
X01050000Y00500000D02*
X01050000Y00850624D01*
X01049376Y00850000D02*
X01186000Y00850000D01*
X01150000Y00880500D02*
X01150000Y00500000D01*
X01200000Y00500000D02*
X01200000Y00606319D01*
X01218000Y00650000D02*
X01222000Y00650000D01*
X01200000Y00678000D02*
X01200000Y00682000D01*
X01218000Y00700000D02*
X01222000Y00700000D01*
X01222000Y00750000D02*
X01218000Y00750000D01*
X01246607Y00750000D02*
X01252142Y00750000D01*
X01250000Y00747535D02*
X01250000Y00776000D01*
X01172000Y00700000D02*
X01048000Y00700000D01*
X01048000Y00650000D02*
X01172000Y00650000D01*
X00950000Y00786142D02*
X00950000Y00861018D01*
X00900000Y00855291D02*
X00900000Y00782000D01*
X00896535Y00900000D02*
X00896536Y00900000D01*
X01139999Y00900000D02*
X01140000Y00900000D01*
X01150000Y00929999D02*
X01150000Y00930000D01*
X01189500Y00950000D02*
X01505208Y00950000D01*
X01500000Y00955208D02*
X01500000Y00912289D01*
X01512289Y00900000D02*
X01519319Y00900000D01*
X01550000Y00898818D02*
X01550000Y00898819D01*
X01600000Y00898818D02*
X01600000Y00898819D01*
X01568818Y00850000D02*
X01568819Y00850000D01*
X01550000Y00849319D02*
X01550000Y00747535D01*
X01552142Y00750000D02*
X01546607Y00750000D01*
X01493393Y00750000D02*
X01487858Y00750000D01*
X01534079Y00850000D02*
X01547634Y00850000D01*
X01687858Y00750000D02*
X01843393Y00750000D01*
X01822000Y00700000D02*
X01698000Y00700000D01*
X01698000Y00650000D02*
X01822000Y00650000D01*
X01850000Y00678000D02*
X01850000Y00682000D01*
X01868000Y00700000D02*
X01872000Y00700000D01*
X01872000Y00650000D02*
X01868000Y00650000D01*
X01850000Y00606319D02*
X01850000Y00500000D01*
X01950000Y00786142D02*
X01950000Y01249096D01*
X01950904Y01250000D02*
X02038842Y01250000D01*
X02046606Y01209786D02*
X02046606Y01209786D01*
X02046606Y01209786D01*
X02042353Y01300000D02*
X01961158Y01300000D01*
X01950000Y01324337D02*
X01950000Y02067000D01*
X02048000Y02150000D02*
X02052000Y02150000D01*
X02050000Y02172999D02*
X02050000Y01313662D01*
X02071629Y01335290D02*
X02071629Y01335290D01*
X02200000Y01341592D02*
X02200000Y02120000D01*
X02220000Y02100000D02*
X02220000Y01330504D01*
X02215213Y01335290D01*
X02128181Y01500000D02*
X02124181Y01500000D01*
X01750000Y01304101D02*
X01750000Y01081249D01*
X01781249Y01050000D02*
X01987570Y01050000D01*
X01960500Y01000000D02*
X01788319Y01000000D01*
X01761249Y00950000D02*
X01967570Y00950000D01*
X02119500Y01000000D02*
X02220000Y01000000D01*
X01752000Y01300000D02*
X01745899Y01300000D01*
X01700000Y01282189D02*
X01700000Y01089500D01*
X01650000Y01063611D02*
X01650000Y01296000D01*
X01600000Y01296000D02*
X01600000Y01078319D01*
X01630068Y01050000D02*
X01636389Y01050000D01*
X01450000Y01221559D02*
X01450000Y01282189D01*
X01400000Y01286957D02*
X01400000Y01208746D01*
X01350000Y01220378D02*
X01350000Y01286957D01*
X01300000Y01250000D02*
X01300000Y01249999D01*
X01150000Y01400000D02*
X01149999Y01400000D01*
X00250000Y01280000D02*
X00250000Y01119807D01*
X02098000Y02150000D02*
X02170000Y02150000D01*
D21*
X01275000Y01680000D03*
D22*
X01275000Y01355000D01*
X01280000Y01350000D01*
D23*
X01375000Y01350000D03*
X01450000Y01350000D03*
X01700000Y01350000D03*
X01725000Y01400000D03*
D24*
X01425000Y01400000D01*
X01375000Y01350000D01*
X01450000Y01350000D02*
X01700000Y01350000D01*
M02*
