G75*
%MOIN*%
%OFA0B0*%
%FSLAX26Y26*%
%IPPOS*%
%LPD*%
%AMOC8*
5,1,8,0,0,1.08239X$1,22.5*
%
%ADD10C,0.000000*%
D10*
X00381890Y01931890D02*
X00468504Y01931890D01*
X00488189Y01951575D02*
X00488183Y01952051D01*
X00488166Y01952526D01*
X00488137Y01953001D01*
X00488097Y01953475D01*
X00488045Y01953948D01*
X00487982Y01954419D01*
X00487908Y01954889D01*
X00487822Y01955357D01*
X00487725Y01955823D01*
X00487617Y01956286D01*
X00487498Y01956746D01*
X00487367Y01957204D01*
X00487226Y01957658D01*
X00487073Y01958109D01*
X00486910Y01958555D01*
X00486736Y01958998D01*
X00486551Y01959436D01*
X00486356Y01959870D01*
X00486150Y01960299D01*
X00485934Y01960723D01*
X00485708Y01961142D01*
X00485472Y01961555D01*
X00485226Y01961962D01*
X00484970Y01962363D01*
X00484704Y01962757D01*
X00484429Y01963146D01*
X00484145Y01963527D01*
X00483852Y01963901D01*
X00483550Y01964269D01*
X00483238Y01964629D01*
X00482919Y01964981D01*
X00482591Y01965325D01*
X00482254Y01965662D01*
X00481910Y01965990D01*
X00481558Y01966309D01*
X00481198Y01966621D01*
X00480830Y01966923D01*
X00480456Y01967216D01*
X00480075Y01967500D01*
X00479686Y01967775D01*
X00479292Y01968041D01*
X00478891Y01968297D01*
X00478484Y01968543D01*
X00478071Y01968779D01*
X00477652Y01969005D01*
X00477228Y01969221D01*
X00476799Y01969427D01*
X00476365Y01969622D01*
X00475927Y01969807D01*
X00475484Y01969981D01*
X00475038Y01970144D01*
X00474587Y01970297D01*
X00474133Y01970438D01*
X00473675Y01970569D01*
X00473215Y01970688D01*
X00472752Y01970796D01*
X00472286Y01970893D01*
X00471818Y01970979D01*
X00471348Y01971053D01*
X00470877Y01971116D01*
X00470404Y01971168D01*
X00469930Y01971208D01*
X00469455Y01971237D01*
X00468980Y01971254D01*
X00468504Y01971260D01*
X00381890Y01971260D01*
X00381414Y01971254D01*
X00380939Y01971237D01*
X00380464Y01971208D01*
X00379990Y01971168D01*
X00379517Y01971116D01*
X00379046Y01971053D01*
X00378576Y01970979D01*
X00378108Y01970893D01*
X00377642Y01970796D01*
X00377179Y01970688D01*
X00376719Y01970569D01*
X00376261Y01970438D01*
X00375807Y01970297D01*
X00375356Y01970144D01*
X00374910Y01969981D01*
X00374467Y01969807D01*
X00374029Y01969622D01*
X00373595Y01969427D01*
X00373166Y01969221D01*
X00372742Y01969005D01*
X00372323Y01968779D01*
X00371910Y01968543D01*
X00371503Y01968297D01*
X00371102Y01968041D01*
X00370708Y01967775D01*
X00370319Y01967500D01*
X00369938Y01967216D01*
X00369564Y01966923D01*
X00369196Y01966621D01*
X00368836Y01966309D01*
X00368484Y01965990D01*
X00368140Y01965662D01*
X00367803Y01965325D01*
X00367475Y01964981D01*
X00367156Y01964629D01*
X00366844Y01964269D01*
X00366542Y01963901D01*
X00366249Y01963527D01*
X00365965Y01963146D01*
X00365690Y01962757D01*
X00365424Y01962363D01*
X00365168Y01961962D01*
X00364922Y01961555D01*
X00364686Y01961142D01*
X00364460Y01960723D01*
X00364244Y01960299D01*
X00364038Y01959870D01*
X00363843Y01959436D01*
X00363658Y01958998D01*
X00363484Y01958555D01*
X00363321Y01958109D01*
X00363168Y01957658D01*
X00363027Y01957204D01*
X00362896Y01956746D01*
X00362777Y01956286D01*
X00362669Y01955823D01*
X00362572Y01955357D01*
X00362486Y01954889D01*
X00362412Y01954419D01*
X00362349Y01953948D01*
X00362297Y01953475D01*
X00362257Y01953001D01*
X00362228Y01952526D01*
X00362211Y01952051D01*
X00362205Y01951575D01*
X00362211Y01951099D01*
X00362228Y01950624D01*
X00362257Y01950149D01*
X00362297Y01949675D01*
X00362349Y01949202D01*
X00362412Y01948731D01*
X00362486Y01948261D01*
X00362572Y01947793D01*
X00362669Y01947327D01*
X00362777Y01946864D01*
X00362896Y01946404D01*
X00363027Y01945946D01*
X00363168Y01945492D01*
X00363321Y01945041D01*
X00363484Y01944595D01*
X00363658Y01944152D01*
X00363843Y01943714D01*
X00364038Y01943280D01*
X00364244Y01942851D01*
X00364460Y01942427D01*
X00364686Y01942008D01*
X00364922Y01941595D01*
X00365168Y01941188D01*
X00365424Y01940787D01*
X00365690Y01940393D01*
X00365965Y01940004D01*
X00366249Y01939623D01*
X00366542Y01939249D01*
X00366844Y01938881D01*
X00367156Y01938521D01*
X00367475Y01938169D01*
X00367803Y01937825D01*
X00368140Y01937488D01*
X00368484Y01937160D01*
X00368836Y01936841D01*
X00369196Y01936529D01*
X00369564Y01936227D01*
X00369938Y01935934D01*
X00370319Y01935650D01*
X00370708Y01935375D01*
X00371102Y01935109D01*
X00371503Y01934853D01*
X00371910Y01934607D01*
X00372323Y01934371D01*
X00372742Y01934145D01*
X00373166Y01933929D01*
X00373595Y01933723D01*
X00374029Y01933528D01*
X00374467Y01933343D01*
X00374910Y01933169D01*
X00375356Y01933006D01*
X00375807Y01932853D01*
X00376261Y01932712D01*
X00376719Y01932581D01*
X00377179Y01932462D01*
X00377642Y01932354D01*
X00378108Y01932257D01*
X00378576Y01932171D01*
X00379046Y01932097D01*
X00379517Y01932034D01*
X00379990Y01931982D01*
X00380464Y01931942D01*
X00380939Y01931913D01*
X00381414Y01931896D01*
X00381890Y01931890D01*
X00468504Y01931890D02*
X00468980Y01931896D01*
X00469455Y01931913D01*
X00469930Y01931942D01*
X00470404Y01931982D01*
X00470877Y01932034D01*
X00471348Y01932097D01*
X00471818Y01932171D01*
X00472286Y01932257D01*
X00472752Y01932354D01*
X00473215Y01932462D01*
X00473675Y01932581D01*
X00474133Y01932712D01*
X00474587Y01932853D01*
X00475038Y01933006D01*
X00475484Y01933169D01*
X00475927Y01933343D01*
X00476365Y01933528D01*
X00476799Y01933723D01*
X00477228Y01933929D01*
X00477652Y01934145D01*
X00478071Y01934371D01*
X00478484Y01934607D01*
X00478891Y01934853D01*
X00479292Y01935109D01*
X00479686Y01935375D01*
X00480075Y01935650D01*
X00480456Y01935934D01*
X00480830Y01936227D01*
X00481198Y01936529D01*
X00481558Y01936841D01*
X00481910Y01937160D01*
X00482254Y01937488D01*
X00482591Y01937825D01*
X00482919Y01938169D01*
X00483238Y01938521D01*
X00483550Y01938881D01*
X00483852Y01939249D01*
X00484145Y01939623D01*
X00484429Y01940004D01*
X00484704Y01940393D01*
X00484970Y01940787D01*
X00485226Y01941188D01*
X00485472Y01941595D01*
X00485708Y01942008D01*
X00485934Y01942427D01*
X00486150Y01942851D01*
X00486356Y01943280D01*
X00486551Y01943714D01*
X00486736Y01944152D01*
X00486910Y01944595D01*
X00487073Y01945041D01*
X00487226Y01945492D01*
X00487367Y01945946D01*
X00487498Y01946404D01*
X00487617Y01946864D01*
X00487725Y01947327D01*
X00487822Y01947793D01*
X00487908Y01948261D01*
X00487982Y01948731D01*
X00488045Y01949202D01*
X00488097Y01949675D01*
X00488137Y01950149D01*
X00488166Y01950624D01*
X00488183Y01951099D01*
X00488189Y01951575D01*
X00523622Y02105118D02*
X00523622Y02191732D01*
X00523628Y02192208D01*
X00523645Y02192683D01*
X00523674Y02193158D01*
X00523714Y02193632D01*
X00523766Y02194105D01*
X00523829Y02194576D01*
X00523903Y02195046D01*
X00523989Y02195514D01*
X00524086Y02195980D01*
X00524194Y02196443D01*
X00524313Y02196903D01*
X00524444Y02197361D01*
X00524585Y02197815D01*
X00524738Y02198266D01*
X00524901Y02198712D01*
X00525075Y02199155D01*
X00525260Y02199593D01*
X00525455Y02200027D01*
X00525661Y02200456D01*
X00525877Y02200880D01*
X00526103Y02201299D01*
X00526339Y02201712D01*
X00526585Y02202119D01*
X00526841Y02202520D01*
X00527107Y02202914D01*
X00527382Y02203303D01*
X00527666Y02203684D01*
X00527959Y02204058D01*
X00528261Y02204426D01*
X00528573Y02204786D01*
X00528892Y02205138D01*
X00529220Y02205482D01*
X00529557Y02205819D01*
X00529901Y02206147D01*
X00530253Y02206466D01*
X00530613Y02206778D01*
X00530981Y02207080D01*
X00531355Y02207373D01*
X00531736Y02207657D01*
X00532125Y02207932D01*
X00532519Y02208198D01*
X00532920Y02208454D01*
X00533327Y02208700D01*
X00533740Y02208936D01*
X00534159Y02209162D01*
X00534583Y02209378D01*
X00535012Y02209584D01*
X00535446Y02209779D01*
X00535884Y02209964D01*
X00536327Y02210138D01*
X00536773Y02210301D01*
X00537224Y02210454D01*
X00537678Y02210595D01*
X00538136Y02210726D01*
X00538596Y02210845D01*
X00539059Y02210953D01*
X00539525Y02211050D01*
X00539993Y02211136D01*
X00540463Y02211210D01*
X00540934Y02211273D01*
X00541407Y02211325D01*
X00541881Y02211365D01*
X00542356Y02211394D01*
X00542831Y02211411D01*
X00543307Y02211417D01*
X00543783Y02211411D01*
X00544258Y02211394D01*
X00544733Y02211365D01*
X00545207Y02211325D01*
X00545680Y02211273D01*
X00546151Y02211210D01*
X00546621Y02211136D01*
X00547089Y02211050D01*
X00547555Y02210953D01*
X00548018Y02210845D01*
X00548478Y02210726D01*
X00548936Y02210595D01*
X00549390Y02210454D01*
X00549841Y02210301D01*
X00550287Y02210138D01*
X00550730Y02209964D01*
X00551168Y02209779D01*
X00551602Y02209584D01*
X00552031Y02209378D01*
X00552455Y02209162D01*
X00552874Y02208936D01*
X00553287Y02208700D01*
X00553694Y02208454D01*
X00554095Y02208198D01*
X00554489Y02207932D01*
X00554878Y02207657D01*
X00555259Y02207373D01*
X00555633Y02207080D01*
X00556001Y02206778D01*
X00556361Y02206466D01*
X00556713Y02206147D01*
X00557057Y02205819D01*
X00557394Y02205482D01*
X00557722Y02205138D01*
X00558041Y02204786D01*
X00558353Y02204426D01*
X00558655Y02204058D01*
X00558948Y02203684D01*
X00559232Y02203303D01*
X00559507Y02202914D01*
X00559773Y02202520D01*
X00560029Y02202119D01*
X00560275Y02201712D01*
X00560511Y02201299D01*
X00560737Y02200880D01*
X00560953Y02200456D01*
X00561159Y02200027D01*
X00561354Y02199593D01*
X00561539Y02199155D01*
X00561713Y02198712D01*
X00561876Y02198266D01*
X00562029Y02197815D01*
X00562170Y02197361D01*
X00562301Y02196903D01*
X00562420Y02196443D01*
X00562528Y02195980D01*
X00562625Y02195514D01*
X00562711Y02195046D01*
X00562785Y02194576D01*
X00562848Y02194105D01*
X00562900Y02193632D01*
X00562940Y02193158D01*
X00562969Y02192683D01*
X00562986Y02192208D01*
X00562992Y02191732D01*
X00562992Y02105118D01*
X00543307Y02085433D02*
X00542831Y02085439D01*
X00542356Y02085456D01*
X00541881Y02085485D01*
X00541407Y02085525D01*
X00540934Y02085577D01*
X00540463Y02085640D01*
X00539993Y02085714D01*
X00539525Y02085800D01*
X00539059Y02085897D01*
X00538596Y02086005D01*
X00538136Y02086124D01*
X00537678Y02086255D01*
X00537224Y02086396D01*
X00536773Y02086549D01*
X00536327Y02086712D01*
X00535884Y02086886D01*
X00535446Y02087071D01*
X00535012Y02087266D01*
X00534583Y02087472D01*
X00534159Y02087688D01*
X00533740Y02087914D01*
X00533327Y02088150D01*
X00532920Y02088396D01*
X00532519Y02088652D01*
X00532125Y02088918D01*
X00531736Y02089193D01*
X00531355Y02089477D01*
X00530981Y02089770D01*
X00530613Y02090072D01*
X00530253Y02090384D01*
X00529901Y02090703D01*
X00529557Y02091031D01*
X00529220Y02091368D01*
X00528892Y02091712D01*
X00528573Y02092064D01*
X00528261Y02092424D01*
X00527959Y02092792D01*
X00527666Y02093166D01*
X00527382Y02093547D01*
X00527107Y02093936D01*
X00526841Y02094330D01*
X00526585Y02094731D01*
X00526339Y02095138D01*
X00526103Y02095551D01*
X00525877Y02095970D01*
X00525661Y02096394D01*
X00525455Y02096823D01*
X00525260Y02097257D01*
X00525075Y02097695D01*
X00524901Y02098138D01*
X00524738Y02098584D01*
X00524585Y02099035D01*
X00524444Y02099489D01*
X00524313Y02099947D01*
X00524194Y02100407D01*
X00524086Y02100870D01*
X00523989Y02101336D01*
X00523903Y02101804D01*
X00523829Y02102274D01*
X00523766Y02102745D01*
X00523714Y02103218D01*
X00523674Y02103692D01*
X00523645Y02104167D01*
X00523628Y02104642D01*
X00523622Y02105118D01*
X00543307Y02085433D02*
X00543783Y02085439D01*
X00544258Y02085456D01*
X00544733Y02085485D01*
X00545207Y02085525D01*
X00545680Y02085577D01*
X00546151Y02085640D01*
X00546621Y02085714D01*
X00547089Y02085800D01*
X00547555Y02085897D01*
X00548018Y02086005D01*
X00548478Y02086124D01*
X00548936Y02086255D01*
X00549390Y02086396D01*
X00549841Y02086549D01*
X00550287Y02086712D01*
X00550730Y02086886D01*
X00551168Y02087071D01*
X00551602Y02087266D01*
X00552031Y02087472D01*
X00552455Y02087688D01*
X00552874Y02087914D01*
X00553287Y02088150D01*
X00553694Y02088396D01*
X00554095Y02088652D01*
X00554489Y02088918D01*
X00554878Y02089193D01*
X00555259Y02089477D01*
X00555633Y02089770D01*
X00556001Y02090072D01*
X00556361Y02090384D01*
X00556713Y02090703D01*
X00557057Y02091031D01*
X00557394Y02091368D01*
X00557722Y02091712D01*
X00558041Y02092064D01*
X00558353Y02092424D01*
X00558655Y02092792D01*
X00558948Y02093166D01*
X00559232Y02093547D01*
X00559507Y02093936D01*
X00559773Y02094330D01*
X00560029Y02094731D01*
X00560275Y02095138D01*
X00560511Y02095551D01*
X00560737Y02095970D01*
X00560953Y02096394D01*
X00561159Y02096823D01*
X00561354Y02097257D01*
X00561539Y02097695D01*
X00561713Y02098138D01*
X00561876Y02098584D01*
X00562029Y02099035D01*
X00562170Y02099489D01*
X00562301Y02099947D01*
X00562420Y02100407D01*
X00562528Y02100870D01*
X00562625Y02101336D01*
X00562711Y02101804D01*
X00562785Y02102274D01*
X00562848Y02102745D01*
X00562900Y02103218D01*
X00562940Y02103692D01*
X00562969Y02104167D01*
X00562986Y02104642D01*
X00562992Y02105118D01*
X00314961Y02105118D02*
X00314961Y02191732D01*
X00295276Y02211417D02*
X00294800Y02211411D01*
X00294325Y02211394D01*
X00293850Y02211365D01*
X00293376Y02211325D01*
X00292903Y02211273D01*
X00292432Y02211210D01*
X00291962Y02211136D01*
X00291494Y02211050D01*
X00291028Y02210953D01*
X00290565Y02210845D01*
X00290105Y02210726D01*
X00289647Y02210595D01*
X00289193Y02210454D01*
X00288742Y02210301D01*
X00288296Y02210138D01*
X00287853Y02209964D01*
X00287415Y02209779D01*
X00286981Y02209584D01*
X00286552Y02209378D01*
X00286128Y02209162D01*
X00285709Y02208936D01*
X00285296Y02208700D01*
X00284889Y02208454D01*
X00284488Y02208198D01*
X00284094Y02207932D01*
X00283705Y02207657D01*
X00283324Y02207373D01*
X00282950Y02207080D01*
X00282582Y02206778D01*
X00282222Y02206466D01*
X00281870Y02206147D01*
X00281526Y02205819D01*
X00281189Y02205482D01*
X00280861Y02205138D01*
X00280542Y02204786D01*
X00280230Y02204426D01*
X00279928Y02204058D01*
X00279635Y02203684D01*
X00279351Y02203303D01*
X00279076Y02202914D01*
X00278810Y02202520D01*
X00278554Y02202119D01*
X00278308Y02201712D01*
X00278072Y02201299D01*
X00277846Y02200880D01*
X00277630Y02200456D01*
X00277424Y02200027D01*
X00277229Y02199593D01*
X00277044Y02199155D01*
X00276870Y02198712D01*
X00276707Y02198266D01*
X00276554Y02197815D01*
X00276413Y02197361D01*
X00276282Y02196903D01*
X00276163Y02196443D01*
X00276055Y02195980D01*
X00275958Y02195514D01*
X00275872Y02195046D01*
X00275798Y02194576D01*
X00275735Y02194105D01*
X00275683Y02193632D01*
X00275643Y02193158D01*
X00275614Y02192683D01*
X00275597Y02192208D01*
X00275591Y02191732D01*
X00275591Y02105118D01*
X00275597Y02104642D01*
X00275614Y02104167D01*
X00275643Y02103692D01*
X00275683Y02103218D01*
X00275735Y02102745D01*
X00275798Y02102274D01*
X00275872Y02101804D01*
X00275958Y02101336D01*
X00276055Y02100870D01*
X00276163Y02100407D01*
X00276282Y02099947D01*
X00276413Y02099489D01*
X00276554Y02099035D01*
X00276707Y02098584D01*
X00276870Y02098138D01*
X00277044Y02097695D01*
X00277229Y02097257D01*
X00277424Y02096823D01*
X00277630Y02096394D01*
X00277846Y02095970D01*
X00278072Y02095551D01*
X00278308Y02095138D01*
X00278554Y02094731D01*
X00278810Y02094330D01*
X00279076Y02093936D01*
X00279351Y02093547D01*
X00279635Y02093166D01*
X00279928Y02092792D01*
X00280230Y02092424D01*
X00280542Y02092064D01*
X00280861Y02091712D01*
X00281189Y02091368D01*
X00281526Y02091031D01*
X00281870Y02090703D01*
X00282222Y02090384D01*
X00282582Y02090072D01*
X00282950Y02089770D01*
X00283324Y02089477D01*
X00283705Y02089193D01*
X00284094Y02088918D01*
X00284488Y02088652D01*
X00284889Y02088396D01*
X00285296Y02088150D01*
X00285709Y02087914D01*
X00286128Y02087688D01*
X00286552Y02087472D01*
X00286981Y02087266D01*
X00287415Y02087071D01*
X00287853Y02086886D01*
X00288296Y02086712D01*
X00288742Y02086549D01*
X00289193Y02086396D01*
X00289647Y02086255D01*
X00290105Y02086124D01*
X00290565Y02086005D01*
X00291028Y02085897D01*
X00291494Y02085800D01*
X00291962Y02085714D01*
X00292432Y02085640D01*
X00292903Y02085577D01*
X00293376Y02085525D01*
X00293850Y02085485D01*
X00294325Y02085456D01*
X00294800Y02085439D01*
X00295276Y02085433D01*
X00295752Y02085439D01*
X00296227Y02085456D01*
X00296702Y02085485D01*
X00297176Y02085525D01*
X00297649Y02085577D01*
X00298120Y02085640D01*
X00298590Y02085714D01*
X00299058Y02085800D01*
X00299524Y02085897D01*
X00299987Y02086005D01*
X00300447Y02086124D01*
X00300905Y02086255D01*
X00301359Y02086396D01*
X00301810Y02086549D01*
X00302256Y02086712D01*
X00302699Y02086886D01*
X00303137Y02087071D01*
X00303571Y02087266D01*
X00304000Y02087472D01*
X00304424Y02087688D01*
X00304843Y02087914D01*
X00305256Y02088150D01*
X00305663Y02088396D01*
X00306064Y02088652D01*
X00306458Y02088918D01*
X00306847Y02089193D01*
X00307228Y02089477D01*
X00307602Y02089770D01*
X00307970Y02090072D01*
X00308330Y02090384D01*
X00308682Y02090703D01*
X00309026Y02091031D01*
X00309363Y02091368D01*
X00309691Y02091712D01*
X00310010Y02092064D01*
X00310322Y02092424D01*
X00310624Y02092792D01*
X00310917Y02093166D01*
X00311201Y02093547D01*
X00311476Y02093936D01*
X00311742Y02094330D01*
X00311998Y02094731D01*
X00312244Y02095138D01*
X00312480Y02095551D01*
X00312706Y02095970D01*
X00312922Y02096394D01*
X00313128Y02096823D01*
X00313323Y02097257D01*
X00313508Y02097695D01*
X00313682Y02098138D01*
X00313845Y02098584D01*
X00313998Y02099035D01*
X00314139Y02099489D01*
X00314270Y02099947D01*
X00314389Y02100407D01*
X00314497Y02100870D01*
X00314594Y02101336D01*
X00314680Y02101804D01*
X00314754Y02102274D01*
X00314817Y02102745D01*
X00314869Y02103218D01*
X00314909Y02103692D01*
X00314938Y02104167D01*
X00314955Y02104642D01*
X00314961Y02105118D01*
X00314961Y02191732D02*
X00314955Y02192208D01*
X00314938Y02192683D01*
X00314909Y02193158D01*
X00314869Y02193632D01*
X00314817Y02194105D01*
X00314754Y02194576D01*
X00314680Y02195046D01*
X00314594Y02195514D01*
X00314497Y02195980D01*
X00314389Y02196443D01*
X00314270Y02196903D01*
X00314139Y02197361D01*
X00313998Y02197815D01*
X00313845Y02198266D01*
X00313682Y02198712D01*
X00313508Y02199155D01*
X00313323Y02199593D01*
X00313128Y02200027D01*
X00312922Y02200456D01*
X00312706Y02200880D01*
X00312480Y02201299D01*
X00312244Y02201712D01*
X00311998Y02202119D01*
X00311742Y02202520D01*
X00311476Y02202914D01*
X00311201Y02203303D01*
X00310917Y02203684D01*
X00310624Y02204058D01*
X00310322Y02204426D01*
X00310010Y02204786D01*
X00309691Y02205138D01*
X00309363Y02205482D01*
X00309026Y02205819D01*
X00308682Y02206147D01*
X00308330Y02206466D01*
X00307970Y02206778D01*
X00307602Y02207080D01*
X00307228Y02207373D01*
X00306847Y02207657D01*
X00306458Y02207932D01*
X00306064Y02208198D01*
X00305663Y02208454D01*
X00305256Y02208700D01*
X00304843Y02208936D01*
X00304424Y02209162D01*
X00304000Y02209378D01*
X00303571Y02209584D01*
X00303137Y02209779D01*
X00302699Y02209964D01*
X00302256Y02210138D01*
X00301810Y02210301D01*
X00301359Y02210454D01*
X00300905Y02210595D01*
X00300447Y02210726D01*
X00299987Y02210845D01*
X00299524Y02210953D01*
X00299058Y02211050D01*
X00298590Y02211136D01*
X00298120Y02211210D01*
X00297649Y02211273D01*
X00297176Y02211325D01*
X00296702Y02211365D01*
X00296227Y02211394D01*
X00295752Y02211411D01*
X00295276Y02211417D01*
M02*
