G75*
%MOIN*%
%OFA0B0*%
%FSLAX26Y26*%
%IPPOS*%
%LPD*%
%AMOC8*
5,1,8,0,0,1.08239X$1,22.5*
%
%ADD10OC8,0.071000*%
%ADD11C,0.071000*%
%ADD12OC8,0.060000*%
%ADD13C,0.068000*%
%ADD14C,0.012000*%
%ADD15OC8,0.108000*%
%ADD16C,0.060000*%
%ADD17C,0.086740*%
%ADD18C,0.064000*%
%ADD19C,0.047622*%
D10*
X00667008Y01010000D03*
X00667008Y01110000D03*
X01140000Y01030000D03*
X01140000Y00930000D03*
X01280000Y01250000D03*
X01280000Y01350000D03*
X01568819Y00998819D03*
X01568819Y00898819D03*
X01708819Y00910000D03*
X01708819Y01010000D03*
X02040000Y00990000D03*
X02040000Y00890000D03*
X01249370Y01930000D03*
X01255276Y02067638D03*
X00886457Y02004094D03*
X00786457Y02004094D03*
X00786500Y02184000D03*
X00886500Y02184000D03*
D11*
X01255276Y02167638D03*
X01249370Y01830000D03*
D12*
X01067638Y01974094D03*
X00992638Y02024094D03*
X01067638Y02074094D03*
X01422835Y02211890D03*
X01535000Y02170000D03*
X01635000Y02170000D03*
X01422835Y01911890D03*
X01005197Y01210472D03*
X00896535Y01199291D03*
X00791654Y01208898D03*
X00466457Y01160000D03*
X00361654Y01228189D03*
X00361654Y00928189D03*
X00466457Y00860000D03*
X00791654Y00908898D03*
X00896535Y00899291D03*
X01005197Y00910472D03*
X01260000Y00850000D03*
X01357717Y00846378D03*
X01460079Y00847559D03*
X01460079Y01147559D03*
X01357717Y01146378D03*
X01260000Y01150000D03*
X02185000Y01145000D03*
X02185000Y00845000D03*
D13*
X00220000Y00710000D02*
X00220000Y00650000D01*
X00320000Y00650000D02*
X00320000Y00710000D01*
X00420000Y00710000D02*
X00420000Y00650000D01*
X00670000Y00650000D02*
X00670000Y00710000D01*
X00770000Y00710000D02*
X00770000Y00650000D01*
X00870000Y00650000D02*
X00870000Y00710000D01*
X00970000Y00710000D02*
X00970000Y00650000D01*
X01220000Y00650000D02*
X01220000Y00710000D01*
X01320000Y00710000D02*
X01320000Y00650000D01*
X01420000Y00650000D02*
X01420000Y00710000D01*
X01520000Y00710000D02*
X01520000Y00650000D01*
X01620000Y00650000D02*
X01620000Y00710000D01*
X01870000Y00710000D02*
X01870000Y00650000D01*
X01970000Y00650000D02*
X01970000Y00710000D01*
X02070000Y00710000D02*
X02070000Y00650000D01*
X02170000Y00650000D02*
X02170000Y00710000D01*
X02050000Y02145000D02*
X02050000Y02205000D01*
X01950000Y02205000D02*
X01950000Y02145000D01*
X01850000Y02145000D02*
X01850000Y02205000D01*
X01750000Y02205000D02*
X01750000Y02145000D01*
D14*
X00285119Y01009028D02*
X00291119Y01015028D01*
X00292090Y00995171D01*
X00278735Y00980442D01*
X00258878Y00979471D01*
X00244149Y00992826D01*
X00243178Y01012683D01*
X00256533Y01027412D01*
X00276390Y01028383D01*
X00291119Y01015028D01*
X00282312Y01010865D01*
X00282919Y00998454D01*
X00274572Y00989249D01*
X00262161Y00988642D01*
X00252956Y00996989D01*
X00252349Y01009400D01*
X00260696Y01018605D01*
X00273107Y01019212D01*
X00282312Y01010865D01*
X00273505Y01006702D01*
X00273748Y01001738D01*
X00270409Y00998056D01*
X00265445Y00997813D01*
X00261763Y01001152D01*
X00261520Y01006116D01*
X00264859Y01009798D01*
X00269823Y01010041D01*
X00273505Y01006702D01*
X00211039Y01076200D02*
X00217039Y01082200D01*
X00218010Y01062343D01*
X00204655Y01047614D01*
X00184798Y01046643D01*
X00170069Y01059998D01*
X00169098Y01079855D01*
X00182453Y01094584D01*
X00202310Y01095555D01*
X00217039Y01082200D01*
X00208232Y01078037D01*
X00208839Y01065626D01*
X00200492Y01056421D01*
X00188081Y01055814D01*
X00178876Y01064161D01*
X00178269Y01076572D01*
X00186616Y01085777D01*
X00199027Y01086384D01*
X00208232Y01078037D01*
X00199425Y01073874D01*
X00199668Y01068910D01*
X00196329Y01065228D01*
X00191365Y01064985D01*
X00187683Y01068324D01*
X00187440Y01073288D01*
X00190779Y01076970D01*
X00195743Y01077213D01*
X00199425Y01073874D01*
X00217947Y00934947D02*
X00223947Y00940947D01*
X00224918Y00921090D01*
X00211563Y00906361D01*
X00191706Y00905390D01*
X00176977Y00918745D01*
X00176006Y00938602D01*
X00189361Y00953331D01*
X00209218Y00954302D01*
X00223947Y00940947D01*
X00215140Y00936784D01*
X00215747Y00924373D01*
X00207400Y00915168D01*
X00194989Y00914561D01*
X00185784Y00922908D01*
X00185177Y00935319D01*
X00193524Y00944524D01*
X00205935Y00945131D01*
X00215140Y00936784D01*
X00206333Y00932621D01*
X00206576Y00927657D01*
X00203237Y00923975D01*
X00198273Y00923732D01*
X00194591Y00927071D01*
X00194348Y00932035D01*
X00197687Y00935717D01*
X00202651Y00935960D01*
X00206333Y00932621D01*
D15*
X01536181Y01553819D03*
X02126181Y01553819D03*
D16*
X01150000Y01654000D02*
X01150000Y01706000D01*
X01050000Y01706000D02*
X01050000Y01654000D01*
X00950000Y01654000D02*
X00950000Y01706000D01*
X00850000Y01706000D02*
X00850000Y01654000D01*
X00750000Y01654000D02*
X00750000Y01706000D01*
X00650000Y01706000D02*
X00650000Y01654000D01*
X00550000Y01654000D02*
X00550000Y01706000D01*
X00450000Y01706000D02*
X00450000Y01654000D01*
X00350000Y01654000D02*
X00350000Y01706000D01*
X00250000Y01706000D02*
X00250000Y01654000D01*
X00250000Y01406000D02*
X00250000Y01354000D01*
X00350000Y01354000D02*
X00350000Y01406000D01*
X00450000Y01406000D02*
X00450000Y01354000D01*
X00550000Y01354000D02*
X00550000Y01406000D01*
X00650000Y01406000D02*
X00650000Y01354000D01*
X00750000Y01354000D02*
X00750000Y01406000D01*
X00850000Y01406000D02*
X00850000Y01354000D01*
X00950000Y01354000D02*
X00950000Y01406000D01*
X01050000Y01406000D02*
X01050000Y01354000D01*
X01150000Y01354000D02*
X01150000Y01406000D01*
D17*
X00464567Y01951575D02*
X00385827Y01951575D01*
X00295276Y02109055D02*
X00295276Y02187795D01*
X00543307Y02187795D02*
X00543307Y02109055D01*
D18*
X01275000Y01680000D03*
D19*
X01375000Y01350000D03*
X01450000Y01350000D03*
X01700000Y01350000D03*
X01725000Y01400000D03*
M02*
